<svg width="90" height="90" viewBox="0 0 90 90" fill="none" xmlns="http://www.w3.org/2000/svg">
<circle cx="45" cy="45" r="45" fill="#FF8516" fill-opacity="0.15"/>
<path d="M34.5833 45V63.75M55.4166 45V63.75" stroke="#FF8516" stroke-width="3" stroke-linecap="round" stroke-linejoin="round"/>
<path d="M26.25 45H63.75" stroke="#FF8516" stroke-width="3" stroke-linecap="round" stroke-linejoin="round"/>
<path d="M25.2083 48.6458C25.2083 41.0346 25.2083 37.229 27.527 34.8645C29.8457 32.5 33.5777 32.5 41.0416 32.5H48.9583C56.4222 32.5 60.1541 32.5 62.4728 34.8645C64.7916 37.229 64.7916 41.0346 64.7916 48.6458C64.7916 56.2571 64.7916 60.0627 62.4728 62.4271C60.1541 64.7917 56.4222 64.7917 48.9583 64.7917H41.0416C33.5777 64.7917 29.8457 64.7917 27.527 62.4271C25.2083 60.0627 25.2083 56.2571 25.2083 48.6458Z" stroke="#FF8516" stroke-width="3" stroke-linecap="round"/>
<path d="M54.375 32.4999L54.1681 31.856C53.1367 28.6476 52.621 27.0434 51.3935 26.1258C50.1658 25.2083 48.5354 25.2083 45.2742 25.2083H44.7258C41.4646 25.2083 39.8341 25.2083 38.6065 26.1258C37.3789 27.0434 36.8632 28.6476 35.832 31.856L35.625 32.4999" stroke="#FF8516" stroke-width="3"/>
</svg>
