<svg width="90" height="90" viewBox="0 0 90 90" fill="none" xmlns="http://www.w3.org/2000/svg">
<circle cx="45" cy="45" r="45" fill="#2F2B6F" fill-opacity="0.15"/>
<path d="M34.5835 57.5V53.3334M45.0002 57.5V51.25M55.4168 57.5V47.0834M25.2085 45C25.2085 35.6702 25.2085 31.0052 28.1069 28.1068C31.0053 25.2084 35.6703 25.2084 45.0002 25.2084C54.33 25.2084 58.995 25.2084 61.8935 28.1068C64.7918 31.0052 64.7918 35.6702 64.7918 45C64.7918 54.3298 64.7918 58.9948 61.8935 61.8934C58.995 64.7917 54.33 64.7917 45.0002 64.7917C35.6703 64.7917 31.0053 64.7917 28.1069 61.8934C25.2085 58.9948 25.2085 54.3298 25.2085 45Z" stroke="#2F2B6F" stroke-width="3" stroke-linecap="round" stroke-linejoin="round"/>
<path d="M32.4839 43.9298C36.9737 44.0794 47.1545 43.4017 52.9454 34.2111M49.1508 33.1008L53.0581 32.4719C53.5343 32.4113 54.2335 32.7872 54.4054 33.2354L55.4385 36.6488" stroke="#2F2B6F" stroke-width="3" stroke-linecap="round" stroke-linejoin="round"/>
</svg>
