<svg width="80" height="80" viewBox="0 0 80 80" fill="none" xmlns="http://www.w3.org/2000/svg">
<path opacity="0.4" d="M10 73.3333V22.3908C10 14.0216 10 9.83705 12.6373 7.76082C15.2746 5.68462 19.1581 6.81185 26.9251 9.06632L43.5917 13.9041C48.2787 15.2645 50.6223 15.9448 51.9777 17.7989C53.3333 19.6529 53.3333 22.1781 53.3333 27.2286V73.3333H33.3333C36.476 73.3333 38.0473 73.3333 39.0237 72.357C40 71.3807 40 69.8093 40 66.6667V63.3333C40 60.1907 40 58.6194 39.0237 57.643C38.0473 56.6667 36.476 56.6667 33.3333 56.6667H30C26.8573 56.6667 25.286 56.6667 24.3096 57.643C23.3333 58.6194 23.3333 60.1907 23.3333 63.3333V66.6667C23.3333 69.8093 23.3333 71.3807 24.3096 72.357C25.286 73.3333 26.8573 73.3333 30 73.3333H10Z" fill="#FF8516"/>
<path d="M53.3333 33.3333L60.4979 35.4826C65.0753 36.856 67.3639 37.5426 68.6819 39.314C69.9999 41.0853 69.9999 43.475 69.9999 48.2536V73.3333" stroke="#FF8516" stroke-width="4" stroke-linejoin="round"/>
<path d="M26.6667 30H36.6667M26.6667 43.3333H36.6667" stroke="#FF8516" stroke-width="4" stroke-linecap="round" stroke-linejoin="round"/>
<path d="M39.9999 73.3334V63.3334C39.9999 60.1907 39.9999 58.6194 39.0236 57.643C38.0473 56.6667 36.4759 56.6667 33.3333 56.6667H29.9999C26.8572 56.6667 25.2859 56.6667 24.3096 57.643C23.3333 58.6194 23.3333 60.1907 23.3333 63.3334V73.3334" stroke="#FF8516" stroke-width="4" stroke-linejoin="round"/>
<path d="M33.3333 56.6667H29.9999C26.8572 56.6667 25.2859 56.6667 24.3096 57.643C23.3333 58.6194 23.3333 60.1907 23.3333 63.3334V66.6667C23.3333 69.8094 23.3333 71.3807 24.3096 72.357C25.2859 73.3334 26.8572 73.3334 29.9999 73.3334H33.3333C36.4759 73.3334 38.0473 73.3334 39.0236 72.357C39.9999 71.3807 39.9999 69.8094 39.9999 66.6667V63.3334C39.9999 60.1907 39.9999 58.6194 39.0236 57.643C38.0473 56.6667 36.4759 56.6667 33.3333 56.6667Z" stroke="#FF8516" stroke-width="4" stroke-linejoin="round"/>
<path d="M6.66663 73.3333H73.3333" stroke="#FF8516" stroke-width="4" stroke-linecap="round"/>
<path d="M10 73.3334V22.3908C10 14.0217 10 9.83706 12.6373 7.76083C15.2746 5.6846 19.1581 6.81186 26.9251 9.06636L43.5917 13.9041C48.2787 15.2646 50.6223 15.9448 51.9777 17.7989C53.3333 19.6529 53.3333 22.1782 53.3333 27.2286V73.3334" stroke="#FF8516" stroke-width="4" stroke-linecap="round" stroke-linejoin="round"/>
</svg>
