<svg width="40" height="40" viewBox="0 0 40 40" fill="none" xmlns="http://www.w3.org/2000/svg">
<rect width="40" height="40" rx="10" fill="#202020"/>
<path fill-rule="evenodd" clip-rule="evenodd" d="M14.6324 18.507C13.7303 18.507 13.542 18.6789 13.542 19.5024V20.9954C13.542 21.8189 13.7303 21.9908 14.6324 21.9908H16.8131V27.9631C16.8131 28.7866 17.0014 28.9584 17.9035 28.9584H20.0842C20.9863 28.9584 21.1745 28.7866 21.1745 27.9631V21.9908H23.6232C24.3074 21.9908 24.4837 21.8694 24.6716 21.2689L25.139 19.7758C25.4609 18.7472 25.2625 18.507 24.0905 18.507H21.1745V16.0186C21.1745 15.4689 21.6627 15.0232 22.265 15.0232H25.3683C26.2704 15.0232 26.4586 14.8514 26.4586 14.0279V12.0371C26.4586 11.2136 26.2704 11.0417 25.3683 11.0417H22.265C19.254 11.0417 16.8131 13.27 16.8131 16.0186V18.507H14.6324Z" fill="white"/>
</svg>
