<svg width="40" height="40" viewBox="0 0 40 40" fill="none" xmlns="http://www.w3.org/2000/svg">
<rect width="40" height="40" rx="10" fill="#202020"/>
<path d="M12.0833 19.9999C12.0833 16.268 12.0833 14.402 13.2426 13.2426C14.402 12.0833 16.268 12.0833 19.9999 12.0833C23.7318 12.0833 25.5978 12.0833 26.7573 13.2426C27.9166 14.402 27.9166 16.268 27.9166 19.9999C27.9166 23.7318 27.9166 25.5978 26.7573 26.7573C25.5978 27.9166 23.7318 27.9166 19.9999 27.9166C16.268 27.9166 14.402 27.9166 13.2426 26.7573C12.0833 25.5978 12.0833 23.7318 12.0833 19.9999Z" stroke="white" stroke-width="1.25" stroke-linejoin="round"/>
<path d="M23.75 20C23.75 22.0711 22.0711 23.75 20 23.75C17.9289 23.75 16.25 22.0711 16.25 20C16.25 17.9289 17.9289 16.25 20 16.25C22.0711 16.25 23.75 17.9289 23.75 20Z" stroke="white" stroke-width="1.25"/>
<path d="M24.5898 15.4167H24.5823" stroke="white" stroke-width="1.66667" stroke-linecap="round" stroke-linejoin="round"/>
</svg>
