<svg width="339" height="200" viewBox="0 0 339 200" fill="none" xmlns="http://www.w3.org/2000/svg">
<path fill-rule="evenodd" clip-rule="evenodd" d="M237.826 146.581C263.358 146.581 284.056 125.884 284.056 100.352C284.056 74.8203 263.358 54.1227 237.826 54.1227C212.295 54.1227 191.597 74.8203 191.597 100.352C191.597 125.884 212.295 146.581 237.826 146.581ZM237.826 124.03C250.903 124.03 261.505 113.429 261.505 100.352C261.505 87.2745 250.903 76.6733 237.826 76.6733C224.749 76.6733 214.148 87.2745 214.148 100.352C214.148 113.429 224.749 124.03 237.826 124.03Z" fill="white" fill-opacity="0.7"/>
<path fill-rule="evenodd" clip-rule="evenodd" d="M338.18 99.7874C338.18 154.898 293.503 199.575 238.392 199.575C194.541 199.575 157.296 171.289 143.907 131.967H168.157C180.36 158.557 207.219 177.024 238.391 177.024C281.048 177.024 315.628 142.444 315.628 99.7872C315.628 57.1306 281.048 22.5506 238.391 22.5506C207.355 22.5506 180.594 40.8568 168.317 67.2607H144.026C157.515 28.1197 194.67 0 238.392 0C293.503 0 338.18 44.6763 338.18 99.7874Z" fill="#2F2B6F"/>
<path opacity="0.7" d="M3.06783 116V85.22H9.29983V116H3.06783ZM14.0133 116V85.22H18.3833L25.2233 101.256V85.22H30.3913V116H26.2113L19.3713 98.976V116H14.0133ZM39.4243 116L33.5723 85.22H39.0063L42.6543 106.5L46.0743 85.22H51.7363L45.8843 116H39.4243ZM54.9078 116V85.22H68.3218V89.552H61.1778V97.722H66.6878V102.092H61.1778V111.744H68.3978V116H54.9078ZM79.55 116.418C77.65 116.418 76.0666 116.076 74.8 115.392C73.5333 114.683 72.5706 113.631 71.912 112.238C71.2786 110.819 70.9113 109.021 70.81 106.842L76.206 105.93C76.2566 107.197 76.3833 108.261 76.586 109.122C76.814 109.958 77.1433 110.591 77.574 111.022C78.03 111.427 78.5873 111.63 79.246 111.63C80.0566 111.63 80.6013 111.377 80.88 110.87C81.184 110.363 81.336 109.781 81.336 109.122C81.336 107.83 81.0193 106.753 80.386 105.892C79.778 105.005 78.9673 104.119 77.954 103.232L74.762 100.458C73.622 99.4953 72.6846 98.406 71.95 97.19C71.2406 95.974 70.886 94.4793 70.886 92.706C70.886 90.1727 71.6206 88.2347 73.09 86.892C74.5846 85.524 76.624 84.84 79.208 84.84C80.7533 84.84 82.02 85.0933 83.008 85.6C83.996 86.1067 84.756 86.7907 85.288 87.652C85.8453 88.488 86.2253 89.4127 86.428 90.426C86.656 91.414 86.7953 92.402 86.846 93.39L81.488 94.188C81.4373 93.2507 81.3486 92.4273 81.222 91.718C81.1206 91.0087 80.8926 90.4513 80.538 90.046C80.2086 89.6407 79.702 89.438 79.018 89.438C78.2833 89.438 77.7386 89.7167 77.384 90.274C77.0293 90.806 76.852 91.4013 76.852 92.06C76.852 93.1493 77.0926 94.0487 77.574 94.758C78.0806 95.442 78.7646 96.164 79.626 96.924L82.742 99.66C84.034 100.775 85.136 102.054 86.048 103.498C86.9853 104.917 87.454 106.677 87.454 108.78C87.454 110.224 87.1246 111.529 86.466 112.694C85.8073 113.859 84.8826 114.771 83.692 115.43C82.5266 116.089 81.146 116.418 79.55 116.418ZM93.6435 116V89.894H88.8935V85.22H104.626V89.894H99.9515V116H93.6435ZM115.783 116.418C113.528 116.418 111.742 116.013 110.425 115.202C109.108 114.391 108.158 113.239 107.575 111.744C107.018 110.224 106.739 108.413 106.739 106.31V94.834C106.739 92.7313 107.018 90.9327 107.575 89.438C108.158 87.9433 109.108 86.8033 110.425 86.018C111.742 85.2327 113.528 84.84 115.783 84.84C118.063 84.84 119.862 85.2453 121.179 86.056C122.522 86.8413 123.472 87.9813 124.029 89.476C124.612 90.9453 124.903 92.7313 124.903 94.834V106.31C124.903 108.413 124.612 110.224 124.029 111.744C123.472 113.239 122.522 114.391 121.179 115.202C119.862 116.013 118.063 116.418 115.783 116.418ZM115.783 111.896C116.594 111.896 117.189 111.719 117.569 111.364C117.949 110.984 118.202 110.49 118.329 109.882C118.456 109.249 118.519 108.577 118.519 107.868V93.314C118.519 92.6047 118.456 91.946 118.329 91.338C118.202 90.73 117.949 90.2487 117.569 89.894C117.189 89.514 116.594 89.324 115.783 89.324C115.023 89.324 114.453 89.514 114.073 89.894C113.693 90.2487 113.44 90.73 113.313 91.338C113.186 91.946 113.123 92.6047 113.123 93.314V107.868C113.123 108.577 113.174 109.249 113.275 109.882C113.402 110.49 113.655 110.984 114.035 111.364C114.415 111.719 114.998 111.896 115.783 111.896ZM129.089 116V85.22H137.069C139.147 85.22 140.92 85.4607 142.389 85.942C143.884 86.398 145.024 87.2213 145.809 88.412C146.62 89.6027 147.025 91.2493 147.025 93.352C147.025 94.6187 146.911 95.746 146.683 96.734C146.481 97.6967 146.101 98.5453 145.543 99.28C145.011 99.9893 144.251 100.559 143.263 100.99L147.519 116H141.097L137.563 102.054H135.359V116H129.089ZM135.359 98.33H137.183C138.197 98.33 138.995 98.1653 139.577 97.836C140.16 97.5067 140.565 97.0127 140.793 96.354C141.047 95.67 141.173 94.834 141.173 93.846C141.173 92.4273 140.907 91.3507 140.375 90.616C139.869 89.856 138.906 89.476 137.487 89.476H135.359V98.33ZM159.112 116.418C157.212 116.418 155.629 116.076 154.362 115.392C153.096 114.683 152.133 113.631 151.474 112.238C150.841 110.819 150.474 109.021 150.372 106.842L155.768 105.93C155.819 107.197 155.946 108.261 156.148 109.122C156.376 109.958 156.706 110.591 157.136 111.022C157.592 111.427 158.15 111.63 158.808 111.63C159.619 111.63 160.164 111.377 160.442 110.87C160.746 110.363 160.898 109.781 160.898 109.122C160.898 107.83 160.582 106.753 159.948 105.892C159.34 105.005 158.53 104.119 157.516 103.232L154.324 100.458C153.184 99.4953 152.247 98.406 151.512 97.19C150.803 95.974 150.448 94.4793 150.448 92.706C150.448 90.1727 151.183 88.2347 152.652 86.892C154.147 85.524 156.186 84.84 158.77 84.84C160.316 84.84 161.582 85.0933 162.57 85.6C163.558 86.1067 164.318 86.7907 164.85 87.652C165.408 88.488 165.788 89.4127 165.99 90.426C166.218 91.414 166.358 92.402 166.408 93.39L161.05 94.188C161 93.2507 160.911 92.4273 160.784 91.718C160.683 91.0087 160.455 90.4513 160.1 90.046C159.771 89.6407 159.264 89.438 158.58 89.438C157.846 89.438 157.301 89.7167 156.946 90.274C156.592 90.806 156.414 91.4013 156.414 92.06C156.414 93.1493 156.655 94.0487 157.136 94.758C157.643 95.442 158.327 96.164 159.188 96.924L162.304 99.66C163.596 100.775 164.698 102.054 165.61 103.498C166.548 104.917 167.016 106.677 167.016 108.78C167.016 110.224 166.687 111.529 166.028 112.694C165.37 113.859 164.445 114.771 163.254 115.43C162.089 116.089 160.708 116.418 159.112 116.418Z" fill="white"/>
</svg>
