<svg width="163" height="165" viewBox="0 0 163 165" fill="none" xmlns="http://www.w3.org/2000/svg">
<path fill-rule="evenodd" clip-rule="evenodd" d="M92.1554 111.406C75.9084 116.335 58.7422 107.16 53.8135 90.9127C48.8849 74.6657 58.0602 57.4994 74.3073 52.5708C90.5543 47.6422 107.721 56.8175 112.649 73.0645C117.578 89.3115 108.402 106.478 92.1554 111.406ZM87.8022 97.056C79.4806 99.5804 70.6881 94.8808 68.1637 86.5592C65.6393 78.2376 70.3388 69.4451 78.6605 66.9207C86.9821 64.3962 95.7746 69.0958 98.299 77.4174C100.823 85.7391 96.1239 94.5315 87.8022 97.056Z" fill="white"/>
<path fill-rule="evenodd" clip-rule="evenodd" d="M19.2629 101.002C29.9015 136.072 66.9555 155.877 102.025 145.238C129.93 136.773 148.171 111.584 149.1 83.977L133.668 88.6582C131.036 107.934 117.509 124.87 97.6728 130.888C70.5285 139.122 41.8482 123.793 33.6138 96.6482C25.3794 69.5038 40.7089 40.8236 67.8533 32.5892C87.6033 26.5979 108.166 33.0811 121.076 47.5132L136.533 42.8241C120.394 20.5207 91.322 9.79918 63.4993 18.2394C28.4296 28.878 8.62422 65.932 19.2629 101.002Z" fill="#2F2B6F"/>
</svg>
