<svg width="40" height="40" viewBox="0 0 40 40" fill="none" xmlns="http://www.w3.org/2000/svg">
<rect width="40" height="40" rx="10" fill="#202020"/>
<path d="M14.1666 17.5H13.7499C12.9642 17.5 12.5714 17.5 12.3273 17.7441C12.0833 17.9882 12.0833 18.381 12.0833 19.1667V26.25C12.0833 27.0357 12.0833 27.4285 12.3273 27.6726C12.5714 27.9167 12.9642 27.9167 13.7499 27.9167H14.1666C14.9523 27.9167 15.3451 27.9167 15.5892 27.6726C15.8333 27.4285 15.8333 27.0357 15.8333 26.25V19.1667C15.8333 18.381 15.8333 17.9882 15.5892 17.7441C15.3451 17.5 14.9523 17.5 14.1666 17.5Z" fill="white"/>
<path d="M15.8333 13.9583C15.8333 14.9938 14.9938 15.8333 13.9583 15.8333C12.9227 15.8333 12.0833 14.9938 12.0833 13.9583C12.0833 12.9227 12.9227 12.0833 13.9583 12.0833C14.9938 12.0833 15.8333 12.9227 15.8333 13.9583Z" fill="white"/>
<path d="M19.855 17.5H19.1667C18.381 17.5 17.9882 17.5 17.7441 17.7441C17.5 17.9882 17.5 18.381 17.5 19.1667V26.25C17.5 27.0357 17.5 27.4285 17.7441 27.6726C17.9882 27.9167 18.381 27.9167 19.1667 27.9167H19.5833C20.369 27.9167 20.7618 27.9167 21.0059 27.6726C21.25 27.4285 21.25 27.0357 21.25 26.25L21.2501 23.3334C21.2501 21.9527 21.6901 20.8334 22.9899 20.8334C23.6398 20.8334 24.1667 21.3931 24.1667 22.0834V25.8334C24.1667 26.6191 24.1667 27.0119 24.4107 27.256C24.6547 27.5001 25.0477 27.5001 25.8333 27.5001H26.2489C27.0344 27.5001 27.4272 27.5001 27.6712 27.2561C27.9153 27.0121 27.9154 26.6193 27.9156 25.8338L27.9167 21.2502C27.9167 19.1792 25.947 17.5002 23.9973 17.5002C22.8874 17.5002 21.8973 18.0442 21.2501 18.895C21.25 18.3699 21.25 18.1074 21.136 17.9125C21.0638 17.789 20.9609 17.6863 20.8375 17.6141C20.6426 17.5 20.3801 17.5 19.855 17.5Z" fill="white"/>
</svg>
