<svg width="30" height="30" viewBox="0 0 30 30" fill="none" xmlns="http://www.w3.org/2000/svg">
<rect width="30" height="30" rx="8" fill="#0B0B09"/>
<path d="M10.9166 13.25H10.6249C10.0749 13.25 9.79996 13.25 9.6291 13.4209C9.45825 13.5917 9.45825 13.8667 9.45825 14.4167V19.375C9.45825 19.925 9.45825 20.1999 9.6291 20.3708C9.79996 20.5417 10.0749 20.5417 10.6249 20.5417H10.9166C11.4666 20.5417 11.7415 20.5417 11.9124 20.3708C12.0833 20.1999 12.0833 19.925 12.0833 19.375V14.4167C12.0833 13.8667 12.0833 13.5917 11.9124 13.4209C11.7415 13.25 11.4666 13.25 10.9166 13.25Z" fill="white"/>
<path d="M12.0833 10.771C12.0833 11.4959 11.4956 12.0835 10.7708 12.0835C10.0459 12.0835 9.45825 11.4959 9.45825 10.771C9.45825 10.0461 10.0459 9.4585 10.7708 9.4585C11.4956 9.4585 12.0833 10.0461 12.0833 10.771Z" fill="white"/>
<path d="M14.8985 13.25H14.4167C13.8667 13.25 13.5917 13.25 13.4209 13.4209C13.25 13.5917 13.25 13.8667 13.25 14.4167V19.375C13.25 19.925 13.25 20.1999 13.4209 20.3708C13.5917 20.5417 13.8667 20.5417 14.4167 20.5417H14.7083C15.2583 20.5417 15.5333 20.5417 15.7041 20.3708C15.875 20.1999 15.875 19.925 15.875 19.375L15.8751 17.3334C15.8751 16.3669 16.1831 15.5834 17.0929 15.5834C17.5478 15.5834 17.9167 15.9752 17.9167 16.4584V19.0834C17.9167 19.6334 17.9167 19.9083 18.0875 20.0792C18.2583 20.2501 18.5334 20.2501 19.0833 20.2501H19.3742C19.9241 20.2501 20.199 20.2501 20.3699 20.0793C20.5407 19.9085 20.5408 19.6335 20.5409 19.0837L20.5417 15.8751C20.5417 14.4254 19.1629 13.2501 17.7981 13.2501C17.0212 13.2501 16.3281 13.631 15.8751 14.2265C15.875 13.8589 15.875 13.6752 15.7952 13.5387C15.7446 13.4523 15.6726 13.3804 15.5863 13.3298C15.4498 13.25 15.2661 13.25 14.8985 13.25Z" fill="white"/>
</svg>
