<svg width="80" height="80" viewBox="0 0 80 80" fill="none" xmlns="http://www.w3.org/2000/svg">
<path opacity="0.4" d="M66.6666 56.6666V73.3333H39.9999H13.3333V56.6666C13.3333 50.3813 13.3333 47.2386 15.2859 45.286C17.2385 43.3333 20.3812 43.3333 26.6666 43.3333L39.9999 73.3333L53.3333 43.3333C59.6186 43.3333 62.7612 43.3333 64.7139 45.286C66.6666 47.2386 66.6666 50.3813 66.6666 56.6666Z" fill="#FF8516"/>
<path opacity="0.4" d="M51.6666 21.6667V18.3334C51.6666 11.89 46.4433 6.66669 39.9999 6.66669C33.5566 6.66669 28.3333 11.89 28.3333 18.3334V21.6667C28.3333 28.11 33.5566 33.3334 39.9999 33.3334C46.4433 33.3334 51.6666 28.11 51.6666 21.6667Z" fill="#FF8516"/>
<path d="M66.6666 73.3333V56.6666C66.6666 50.3813 66.6666 47.2386 64.7139 45.286C62.7613 43.3333 59.6186 43.3333 53.3333 43.3333L39.9999 73.3333L26.6666 43.3333C20.3812 43.3333 17.2385 43.3333 15.2859 45.286C13.3333 47.2386 13.3333 50.3813 13.3333 56.6666V73.3333" stroke="#FF8516" stroke-width="4" stroke-linecap="round" stroke-linejoin="round"/>
<path d="M40.0001 50L38.3334 63.3333L40.0001 68.3333L41.6667 63.3333L40.0001 50ZM40.0001 50L36.6667 43.3333H43.3334L40.0001 50Z" stroke="#FF8516" stroke-width="4" stroke-linecap="round" stroke-linejoin="round"/>
<path d="M51.6666 21.6667V18.3334C51.6666 11.89 46.4433 6.66669 39.9999 6.66669C33.5566 6.66669 28.3333 11.89 28.3333 18.3334V21.6667C28.3333 28.11 33.5566 33.3334 39.9999 33.3334C46.4433 33.3334 51.6666 28.11 51.6666 21.6667Z" stroke="#FF8516" stroke-width="4" stroke-linecap="round" stroke-linejoin="round"/>
</svg>
