<svg width="80" height="80" viewBox="0 0 80 80" fill="none" xmlns="http://www.w3.org/2000/svg">
<path opacity="0.4" d="M69.809 56.118C67.6213 42.9553 60.8107 33.1537 54.89 27.3966C53.167 25.7214 52.3057 24.8837 50.4027 24.1085C48.4997 23.3333 46.864 23.3333 43.5927 23.3333H36.4073C33.136 23.3333 31.5003 23.3333 29.5974 24.1085C27.6945 24.8837 26.833 25.7214 25.1101 27.3966C19.1894 33.1537 12.3787 42.9553 10.1909 56.118C8.56309 65.9113 17.5976 73.3333 27.6944 73.3333H52.3057C62.4023 73.3333 71.437 65.9113 69.809 56.118Z" fill="#FF8516"/>
<path d="M69.809 56.118C67.6213 42.9553 60.8107 33.1537 54.89 27.3966C53.167 25.7214 52.3057 24.8837 50.4027 24.1085C48.4997 23.3333 46.864 23.3333 43.5927 23.3333H36.4073C33.136 23.3333 31.5003 23.3333 29.5974 24.1085C27.6945 24.8837 26.833 25.7214 25.1101 27.3966C19.1894 33.1537 12.3787 42.9553 10.1909 56.118C8.56309 65.9113 17.5976 73.3333 27.6944 73.3333H52.3057C62.4023 73.3333 71.437 65.9113 69.809 56.118Z" stroke="#FF8516" stroke-width="4" stroke-linecap="round"/>
<path d="M45.8976 43.0864C45.1769 40.426 41.5089 38.0254 37.1059 39.8214C32.7028 41.617 32.0034 47.3954 38.6636 48.0094C41.6736 48.2867 43.6363 47.6874 45.4329 49.383C47.2299 51.0784 47.5636 55.7937 42.9703 57.0644C38.3769 58.335 33.8286 56.3497 33.3333 53.53M39.9476 36.6667V39.2014M39.9476 57.4554V60" stroke="#FF8516" stroke-width="4" stroke-linecap="round" stroke-linejoin="round"/>
<path d="M24.1887 14.8096C23.501 13.8086 22.5042 12.45 24.5632 12.1402C26.6797 11.8217 28.8773 13.2705 31.0284 13.2407C32.9745 13.2138 33.9659 12.3507 35.0296 11.1183C36.1496 9.82059 37.8839 6.66669 39.9999 6.66669C42.1159 6.66669 43.8503 9.82059 44.9703 11.1183C46.0339 12.3507 47.0252 13.2138 48.9712 13.2407C51.1226 13.2705 53.3203 11.8217 55.4366 12.1402C57.4956 12.45 56.4989 13.8086 55.8113 14.8096L52.7016 19.3355C51.3716 21.2716 50.7066 22.2396 49.3146 22.7865C47.9229 23.3334 46.1243 23.3334 42.5273 23.3334H37.4726C33.8756 23.3334 32.0769 23.3334 30.6851 22.7865C29.2933 22.2396 28.6283 21.2716 27.2981 19.3355L24.1887 14.8096Z" stroke="#FF8516" stroke-width="4"/>
</svg>
