<svg width="48" height="48" viewBox="0 0 48 48" fill="none" xmlns="http://www.w3.org/2000/svg">
<circle cx="24" cy="24" r="24" fill="#E0DFEA"/>
<path d="M28.19 14H19.81C16.17 14 14 16.17 14 19.81V28.18C14 31.83 16.17 34 19.81 34H28.18C31.82 34 33.99 31.83 33.99 28.19V19.81C34 16.17 31.83 14 28.19 14ZM19.63 30.15C19.63 30.56 19.29 30.9 18.88 30.9C18.47 30.9 18.13 30.56 18.13 30.15V28.08C18.13 27.67 18.47 27.33 18.88 27.33C19.29 27.33 19.63 27.67 19.63 28.08V30.15ZM24.75 30.15C24.75 30.56 24.41 30.9 24 30.9C23.59 30.9 23.25 30.56 23.25 30.15V26C23.25 25.59 23.59 25.25 24 25.25C24.41 25.25 24.75 25.59 24.75 26V30.15ZM29.87 30.15C29.87 30.56 29.53 30.9 29.12 30.9C28.71 30.9 28.37 30.56 28.37 30.15V23.93C28.37 23.52 28.71 23.18 29.12 23.18C29.53 23.18 29.87 23.52 29.87 23.93V30.15ZM29.87 20.77C29.87 21.18 29.53 21.52 29.12 21.52C28.71 21.52 28.37 21.18 28.37 20.77V19.8C25.82 22.42 22.63 24.27 19.06 25.16C19 25.18 18.94 25.18 18.88 25.18C18.54 25.18 18.24 24.95 18.15 24.61C18.05 24.21 18.29 23.8 18.7 23.7C22.07 22.86 25.07 21.09 27.45 18.59H26.2C25.79 18.59 25.45 18.25 25.45 17.84C25.45 17.43 25.79 17.09 26.2 17.09H29.13C29.17 17.09 29.2 17.11 29.24 17.11C29.29 17.12 29.34 17.12 29.39 17.14C29.44 17.16 29.48 17.19 29.53 17.22C29.56 17.24 29.59 17.25 29.62 17.27C29.63 17.28 29.63 17.29 29.64 17.29C29.68 17.33 29.71 17.37 29.74 17.41C29.77 17.45 29.8 17.48 29.81 17.52C29.83 17.56 29.83 17.6 29.84 17.65C29.85 17.7 29.87 17.75 29.87 17.81C29.87 17.82 29.88 17.83 29.88 17.84V20.77H29.87Z" fill="#2F2B6F"/>
</svg>
