<svg width="48" height="48" viewBox="0 0 48 48" fill="none" xmlns="http://www.w3.org/2000/svg">
<circle cx="24" cy="24" r="24" fill="#E0DFEA"/>
<path d="M32.3601 24.7301C31.9901 24.7301 31.6801 24.4501 31.6401 24.0801C31.4001 21.8801 30.2201 19.9001 28.4001 18.6401C28.0701 18.4101 27.9901 17.9601 28.2201 17.6301C28.4501 17.3001 28.9001 17.2201 29.2301 17.4501C31.4001 18.9601 32.8001 21.3201 33.0901 23.9301C33.1301 24.3301 32.8401 24.6901 32.4401 24.7301C32.4101 24.7301 32.3901 24.7301 32.3601 24.7301Z" fill="#2F2B6F"/>
<path d="M15.7398 24.78C15.7198 24.78 15.6898 24.78 15.6698 24.78C15.2698 24.74 14.9798 24.38 15.0198 23.98C15.2898 21.37 16.6698 19.01 18.8198 17.49C19.1398 17.26 19.5998 17.34 19.8298 17.66C20.0598 17.99 19.9798 18.44 19.6598 18.67C17.8598 19.95 16.6898 21.93 16.4698 24.12C16.4298 24.5 16.1098 24.78 15.7398 24.78Z" fill="#2F2B6F"/>
<path d="M27.9901 33.1001C26.7601 33.6901 25.4401 33.9901 24.0601 33.9901C22.6201 33.9901 21.2501 33.6701 19.9701 33.0201C19.6101 32.8501 19.4701 32.4101 19.6501 32.0501C19.8201 31.6901 20.2601 31.5501 20.6201 31.7201C21.2501 32.0401 21.9201 32.2601 22.6001 32.3901C23.5201 32.5701 24.4601 32.5801 25.3801 32.4201C26.0601 32.3001 26.7301 32.0901 27.3501 31.7901C27.7201 31.6201 28.1601 31.7601 28.3201 32.1301C28.5001 32.4901 28.3601 32.9301 27.9901 33.1001Z" fill="#2F2B6F"/>
<path d="M24.05 14.01C22.5 14.01 21.23 15.27 21.23 16.83C21.23 18.39 22.49 19.65 24.05 19.65C25.61 19.65 26.87 18.39 26.87 16.83C26.87 15.27 25.61 14.01 24.05 14.01Z" fill="#2F2B6F"/>
<path d="M17.05 25.8701C15.5 25.8701 14.23 27.1301 14.23 28.6901C14.23 30.2501 15.49 31.5101 17.05 31.5101C18.61 31.5101 19.87 30.2501 19.87 28.6901C19.87 27.1301 18.6 25.8701 17.05 25.8701Z" fill="#2F2B6F"/>
<path d="M30.9499 25.8701C29.3999 25.8701 28.1299 27.1301 28.1299 28.6901C28.1299 30.2501 29.3899 31.5101 30.9499 31.5101C32.5099 31.5101 33.7699 30.2501 33.7699 28.6901C33.7699 27.1301 32.5099 25.8701 30.9499 25.8701Z" fill="#2F2B6F"/>
</svg>
