<svg width="48" height="48" viewBox="0 0 48 48" fill="none" xmlns="http://www.w3.org/2000/svg">
<circle cx="24" cy="24" r="24" fill="#E0DFEA"/>
<path d="M33.5599 22.7401L32.1999 21.1601C31.9399 20.8601 31.7299 20.3001 31.7299 19.9001V18.2001C31.7299 17.1401 30.8599 16.2701 29.7999 16.2701H28.0999C27.7099 16.2701 27.1399 16.0601 26.8399 15.8001L25.2599 14.4401C24.5699 13.8501 23.4399 13.8501 22.7399 14.4401L21.1699 15.8101C20.8699 16.0601 20.2999 16.2701 19.9099 16.2701H18.1799C17.1199 16.2701 16.2499 17.1401 16.2499 18.2001V19.9101C16.2499 20.3001 16.0399 20.8601 15.7899 21.1601L14.4399 22.7501C13.8599 23.4401 13.8599 24.5601 14.4399 25.2501L15.7899 26.8401C16.0399 27.1401 16.2499 27.7001 16.2499 28.0901V29.8001C16.2499 30.8601 17.1199 31.7301 18.1799 31.7301H19.9099C20.2999 31.7301 20.8699 31.9401 21.1699 32.2001L22.7499 33.5601C23.4399 34.1501 24.5699 34.1501 25.2699 33.5601L26.8499 32.2001C27.1499 31.9401 27.7099 31.7301 28.1099 31.7301H29.8099C30.8699 31.7301 31.7399 30.8601 31.7399 29.8001V28.1001C31.7399 27.7101 31.9499 27.1401 32.2099 26.8401L33.5699 25.2601C34.1499 24.5701 34.1499 23.4301 33.5599 22.7401ZM28.1599 22.1101L23.3299 26.9401C23.1899 27.0801 22.9999 27.1601 22.7999 27.1601C22.5999 27.1601 22.4099 27.0801 22.2699 26.9401L19.8499 24.5201C19.5599 24.2301 19.5599 23.7501 19.8499 23.4601C20.1399 23.1701 20.6199 23.1701 20.9099 23.4601L22.7999 25.3501L27.0999 21.0501C27.3899 20.7601 27.8699 20.7601 28.1599 21.0501C28.4499 21.3401 28.4499 21.8201 28.1599 22.1101Z" fill="#2F2B6F"/>
</svg>
