<svg width="48" height="48" viewBox="0 0 48 48" fill="none" xmlns="http://www.w3.org/2000/svg">
<circle cx="24" cy="24" r="24" fill="#E0DFEA"/>
<path d="M30.7998 21.9099C29.6698 21.9099 28.6598 22.4599 28.0298 23.2999C27.3998 22.4599 26.3898 21.9099 25.2598 21.9099C23.3498 21.9099 21.7998 23.4699 21.7998 25.3899C21.7998 26.1299 21.9198 26.8199 22.1198 27.4499C23.0998 30.5599 26.1398 32.4299 27.6398 32.9399C27.8498 33.0099 28.1998 33.0099 28.4098 32.9399C29.9098 32.4299 32.9498 30.5699 33.9298 27.4499C34.1398 26.8099 34.2498 26.1299 34.2498 25.3899C34.2598 23.4699 32.7098 21.9099 30.7998 21.9099Z" fill="#2F2B6F"/>
<path d="M32.75 20.3401C32.75 20.5701 32.52 20.7201 32.3 20.6601C30.95 20.3101 29.47 20.6001 28.35 21.4001C28.13 21.5601 27.83 21.5601 27.62 21.4001C26.83 20.8201 25.87 20.5001 24.86 20.5001C22.28 20.5001 20.18 22.6101 20.18 25.2101C20.18 28.0301 21.53 30.1401 22.89 31.5501C22.96 31.6201 22.9 31.7401 22.81 31.7001C20.08 30.7701 14 26.9101 14 20.3401C14 17.4401 16.33 15.1001 19.21 15.1001C20.92 15.1001 22.43 15.9201 23.38 17.1901C24.34 15.9201 25.85 15.1001 27.55 15.1001C30.42 15.1001 32.75 17.4401 32.75 20.3401Z" fill="#2F2B6F"/>
</svg>
