<svg width="48" height="48" viewBox="0 0 48 48" fill="none" xmlns="http://www.w3.org/2000/svg">
<circle cx="24" cy="24" r="24" fill="#E0DFEA"/>
<path d="M28.6501 15.8601H21.9101V18.8801C21.9101 19.2701 21.5901 19.5801 21.2101 19.5801C20.8301 19.5801 20.5101 19.2701 20.5101 18.8801V15.8601H19.3501C15.4001 15.8601 14.1001 17.0401 14.0101 20.7301C14.0001 20.9101 14.0801 21.1001 14.2101 21.2301C14.3401 21.3701 14.5101 21.4401 14.7101 21.4401C16.1101 21.4401 17.2601 22.6001 17.2601 24.0001C17.2601 25.4001 16.1101 26.5601 14.7101 26.5601C14.5201 26.5601 14.3401 26.6301 14.2101 26.7701C14.0801 26.9001 14.0001 27.0901 14.0101 27.2701C14.1001 30.9601 15.4001 32.1401 19.3501 32.1401H20.5101V29.1201C20.5101 28.7301 20.8301 28.4201 21.2101 28.4201C21.5901 28.4201 21.9101 28.7301 21.9101 29.1201V32.1401H28.6501C32.7501 32.1401 34.0001 30.8901 34.0001 26.7901V21.2101C34.0001 17.1101 32.7501 15.8601 28.6501 15.8601ZM30.4701 23.9001L29.5401 24.8001C29.5001 24.8301 29.4901 24.8901 29.5001 24.9401L29.7201 26.2101C29.7601 26.4401 29.6701 26.6801 29.4701 26.8201C29.2801 26.9601 29.0301 26.9801 28.8201 26.8701L27.6701 26.2701C27.6301 26.2501 27.5701 26.2501 27.5301 26.2701L26.3801 26.8701C26.2901 26.9201 26.1901 26.9401 26.0901 26.9401C25.9601 26.9401 25.8401 26.9001 25.7301 26.8201C25.5401 26.6801 25.4401 26.4501 25.4801 26.2101L25.7001 24.9401C25.7101 24.8901 25.6901 24.8401 25.6601 24.8001L24.7301 23.9001C24.5601 23.7401 24.5001 23.4901 24.5701 23.2701C24.6401 23.0401 24.8301 22.8801 25.0701 22.8501L26.3501 22.6601C26.4001 22.6501 26.4401 22.6201 26.4701 22.5801L27.0401 21.4201C27.1501 21.2101 27.3601 21.0801 27.6001 21.0801C27.8401 21.0801 28.0501 21.2101 28.1501 21.4201L28.7201 22.5801C28.7401 22.6301 28.7801 22.6601 28.8301 22.6601L30.1101 22.8501C30.3501 22.8801 30.5401 23.0501 30.6101 23.2701C30.7001 23.4901 30.6401 23.7301 30.4701 23.9001Z" fill="#2F2B6F"/>
</svg>
