<svg width="48" height="48" viewBox="0 0 48 48" fill="none" xmlns="http://www.w3.org/2000/svg">
<circle cx="24" cy="24" r="24" fill="#E0DFEA"/>
<path d="M23.3201 15H17.0901C15.1001 15 14.1001 16.01 14.1001 18.02V34H19.5001V30.25C19.5001 29.84 19.8401 29.5 20.2501 29.5C20.6601 29.5 21.0001 29.83 21.0001 30.25V34H26.3001V18.02C26.3001 16.01 25.3101 15 23.3201 15ZM22.7501 24.75H17.8001C17.3901 24.75 17.0501 24.41 17.0501 24C17.0501 23.59 17.3901 23.25 17.8001 23.25H22.7501C23.1601 23.25 23.5001 23.59 23.5001 24C23.5001 24.41 23.1601 24.75 22.7501 24.75ZM22.7501 21H17.8001C17.3901 21 17.0501 20.66 17.0501 20.25C17.0501 19.84 17.3901 19.5 17.8001 19.5H22.7501C23.1601 19.5 23.5001 19.84 23.5001 20.25C23.5001 20.66 23.1601 21 22.7501 21Z" fill="#2F2B6F"/>
<path d="M35 33.2501H32.73V30.2501C33.68 29.9401 34.37 29.0501 34.37 28.0001V26.0001C34.37 24.6901 33.3 23.6201 31.99 23.6201C30.68 23.6201 29.61 24.6901 29.61 26.0001V28.0001C29.61 29.0401 30.29 29.9201 31.22 30.2401V33.2501H13C12.59 33.2501 12.25 33.5901 12.25 34.0001C12.25 34.4101 12.59 34.7501 13 34.7501H31.93C31.95 34.7501 31.96 34.7601 31.98 34.7601C32 34.7601 32.01 34.7501 32.03 34.7501H35C35.41 34.7501 35.75 34.4101 35.75 34.0001C35.75 33.5901 35.41 33.2501 35 33.2501Z" fill="#2F2B6F"/>
</svg>
