<svg width="70" height="70" viewBox="0 0 70 70" fill="none" xmlns="http://www.w3.org/2000/svg">
<circle cx="35" cy="35" r="35" fill="#FF8516" fill-opacity="0.15"/>
<path d="M34.9958 23.3541C36.1325 23.3541 37.0279 24.2127 37.5995 25.3712L39.5084 29.2205C39.5662 29.3397 39.7035 29.5074 39.9098 29.6609C40.1158 29.8142 40.3176 29.8988 40.4504 29.9211L43.9058 30.4999C45.154 30.7097 46.2001 31.3215 46.5398 32.3869C46.8791 33.4513 46.3819 34.5575 45.4843 35.4567L45.4834 35.4577L42.799 38.1643C42.6926 38.2715 42.5735 38.4736 42.4987 38.7368C42.4245 38.9983 42.4179 39.2366 42.4516 39.3904L42.452 39.3926L43.22 42.7408C43.5386 44.1343 43.433 45.5162 42.4502 46.2387C41.4639 46.9635 40.1163 46.6422 38.8919 45.913L35.6528 43.9797C35.5167 43.8985 35.2832 43.8326 35.0012 43.8326C34.7213 43.8326 34.4828 43.8976 34.3379 43.9819L34.3358 43.9831L31.1031 45.9126C29.8802 46.6444 28.5342 46.96 27.5479 46.2343C26.5657 45.5118 26.4548 44.1325 26.7744 42.7401L27.5422 39.3926L27.5427 39.3904C27.5764 39.2366 27.5698 38.9983 27.4955 38.7368C27.4208 38.4736 27.3016 38.2715 27.1952 38.1643L24.5088 35.4556C23.617 34.5564 23.1215 33.4512 23.4581 32.3883C23.7957 31.3223 24.8399 30.7097 26.0889 30.4999L29.5414 29.9215L29.5425 29.9213C29.6691 29.8994 29.8679 29.8157 30.0735 29.662C30.2795 29.508 30.4171 29.3399 30.475 29.2205L30.478 29.2146L32.3844 25.3702L32.3852 25.3687C32.9622 24.2111 33.8603 23.3541 34.9958 23.3541Z" fill="#FF8516"/>
</svg>
