<svg width="136" height="140" viewBox="0 0 136 140" fill="none" xmlns="http://www.w3.org/2000/svg">
<path fill-rule="evenodd" clip-rule="evenodd" d="M65.5325 38.1303C82.9242 37.8135 97.2797 51.6554 97.5965 69.0471C97.9133 86.4388 84.0714 100.794 66.6797 101.111C49.288 101.428 34.9325 87.5859 34.6157 70.1943C34.2989 52.8026 48.1409 38.4471 65.5325 38.1303ZM65.8124 53.4917C74.7203 53.3294 82.0731 60.4192 82.2354 69.3271C82.3976 78.2351 75.3079 85.5879 66.3999 85.7502C57.492 85.9124 50.1392 78.8226 49.9769 69.9147C49.8147 61.0068 56.9044 53.6539 65.8124 53.4917Z" fill="white"/>
<path fill-rule="evenodd" clip-rule="evenodd" d="M134.471 68.7602C133.788 31.2197 102.801 1.34136 65.2601 2.02514C35.3893 2.56921 10.3697 22.2991 1.73765 49.2503L18.2559 48.9494C26.2386 30.6855 44.3052 17.7733 65.5389 17.3866C94.5957 16.8573 118.58 39.9835 119.109 69.0403C119.638 98.0971 96.5123 122.081 67.4555 122.611C46.314 122.996 27.8579 110.858 19.1676 93.0242L2.62138 93.3256C12.2953 119.82 37.9533 138.514 67.7362 137.971C105.277 137.288 135.155 106.301 134.471 68.7602Z" fill="#FF8516"/>
</svg>
