<svg width="327" height="200" viewBox="0 0 327 200" fill="none" xmlns="http://www.w3.org/2000/svg">
<path fill-rule="evenodd" clip-rule="evenodd" d="M100.353 146.581C74.8216 146.581 54.1241 125.884 54.1241 100.352C54.1241 74.8203 74.8216 54.1228 100.353 54.1228C125.885 54.1228 146.583 74.8203 146.583 100.352C146.583 125.884 125.885 146.581 100.353 146.581ZM100.353 124.03C87.2763 124.03 76.6751 113.429 76.6751 100.352C76.6751 87.2745 87.2763 76.6734 100.353 76.6734C113.431 76.6734 124.032 87.2745 124.032 100.352C124.032 113.429 113.431 124.03 100.353 124.03Z" fill="white" fill-opacity="0.7"/>
<path fill-rule="evenodd" clip-rule="evenodd" d="M0.000106812 99.7874C0.000106812 154.898 44.6765 199.575 99.7875 199.575C143.639 199.575 180.884 171.289 194.272 131.967H170.023C157.82 158.557 130.961 177.024 99.7885 177.024C57.1319 177.024 22.552 142.444 22.552 99.7872C22.552 57.1306 57.1319 22.5506 99.7885 22.5506C130.825 22.5506 157.586 40.8568 169.863 67.2607H194.154C180.665 28.1197 143.51 0 99.7875 0C44.6765 0 0.000106812 44.6763 0.000106812 99.7874Z" fill="#FF8516"/>
<path opacity="0.7" d="M180.477 116.418C178.577 116.418 176.994 116.076 175.727 115.392C174.461 114.683 173.498 113.631 172.839 112.238C172.206 110.819 171.839 109.021 171.737 106.842L177.133 105.93C177.184 107.197 177.311 108.261 177.513 109.122C177.741 109.958 178.071 110.591 178.501 111.022C178.957 111.427 179.515 111.63 180.173 111.63C180.984 111.63 181.529 111.377 181.807 110.87C182.111 110.363 182.263 109.781 182.263 109.122C182.263 107.83 181.947 106.753 181.313 105.892C180.705 105.005 179.895 104.119 178.881 103.232L175.689 100.458C174.549 99.4953 173.612 98.406 172.877 97.19C172.168 95.974 171.813 94.4793 171.813 92.706C171.813 90.1727 172.548 88.2347 174.017 86.892C175.512 85.524 177.551 84.84 180.135 84.84C181.681 84.84 182.947 85.0933 183.935 85.6C184.923 86.1067 185.683 86.7907 186.215 87.652C186.773 88.488 187.153 89.4127 187.355 90.426C187.583 91.414 187.723 92.402 187.773 93.39L182.415 94.188C182.365 93.2507 182.276 92.4273 182.149 91.718C182.048 91.0087 181.82 90.4513 181.465 90.046C181.136 89.6407 180.629 89.438 179.945 89.438C179.211 89.438 178.666 89.7167 178.311 90.274C177.957 90.806 177.779 91.4013 177.779 92.06C177.779 93.1493 178.02 94.0487 178.501 94.758C179.008 95.442 179.692 96.164 180.553 96.924L183.669 99.66C184.961 100.775 186.063 102.054 186.975 103.498C187.913 104.917 188.381 106.677 188.381 108.78C188.381 110.224 188.052 111.529 187.393 112.694C186.735 113.859 185.81 114.771 184.619 115.43C183.454 116.089 182.073 116.418 180.477 116.418ZM194.571 116V89.894H189.821V85.22H205.553V89.894H200.879V116H194.571ZM205.749 116L211.715 85.22H218.669L224.597 116H218.783L217.681 109.236H212.817L211.639 116H205.749ZM213.387 105.398H217.073L215.211 92.972L213.387 105.398ZM227.716 116V85.22H235.696C237.774 85.22 239.547 85.4607 241.016 85.942C242.511 86.398 243.651 87.2213 244.436 88.412C245.247 89.6027 245.652 91.2493 245.652 93.352C245.652 94.6187 245.538 95.746 245.31 96.734C245.108 97.6967 244.728 98.5453 244.17 99.28C243.638 99.9893 242.878 100.559 241.89 100.99L246.146 116H239.724L236.19 102.054H233.986V116H227.716ZM233.986 98.33H235.81C236.824 98.33 237.622 98.1653 238.204 97.836C238.787 97.5067 239.192 97.0127 239.42 96.354C239.674 95.67 239.8 94.834 239.8 93.846C239.8 92.4273 239.534 91.3507 239.002 90.616C238.496 89.856 237.533 89.476 236.114 89.476H233.986V98.33ZM252.536 116V89.894H247.786V85.22H263.518V89.894H258.844V116H252.536ZM274.974 116.418C272.643 116.418 270.832 116.025 269.54 115.24C268.248 114.429 267.336 113.277 266.804 111.782C266.297 110.262 266.044 108.425 266.044 106.272V85.22H272.238V107.146C272.238 107.906 272.289 108.653 272.39 109.388C272.517 110.123 272.77 110.718 273.15 111.174C273.555 111.63 274.163 111.858 274.974 111.858C275.81 111.858 276.418 111.63 276.798 111.174C277.203 110.718 277.457 110.123 277.558 109.388C277.659 108.653 277.71 107.906 277.71 107.146V85.22H283.904V106.272C283.904 108.425 283.638 110.262 283.106 111.782C282.599 113.277 281.7 114.429 280.408 115.24C279.116 116.025 277.305 116.418 274.974 116.418ZM288.279 116V85.22H298.045C299.894 85.22 301.401 85.5747 302.567 86.284C303.732 86.968 304.593 87.9687 305.151 89.286C305.733 90.6033 306.025 92.1993 306.025 94.074C306.025 96.278 305.645 98.0007 304.885 99.242C304.15 100.483 303.137 101.37 301.845 101.902C300.553 102.409 299.071 102.662 297.399 102.662H294.549V116H288.279ZM294.549 98.254H296.753C297.665 98.254 298.361 98.1147 298.843 97.836C299.349 97.532 299.691 97.0633 299.869 96.43C300.046 95.7967 300.135 94.986 300.135 93.998C300.135 93.0607 300.059 92.2753 299.907 91.642C299.78 91.0087 299.476 90.5147 298.995 90.16C298.513 89.8053 297.753 89.628 296.715 89.628H294.549V98.254ZM317.003 116.418C315.103 116.418 313.52 116.076 312.253 115.392C310.986 114.683 310.024 113.631 309.365 112.238C308.732 110.819 308.364 109.021 308.263 106.842L313.659 105.93C313.71 107.197 313.836 108.261 314.039 109.122C314.267 109.958 314.596 110.591 315.027 111.022C315.483 111.427 316.04 111.63 316.699 111.63C317.51 111.63 318.054 111.377 318.333 110.87C318.637 110.363 318.789 109.781 318.789 109.122C318.789 107.83 318.472 106.753 317.839 105.892C317.231 105.005 316.42 104.119 315.407 103.232L312.215 100.458C311.075 99.4953 310.138 98.406 309.403 97.19C308.694 95.974 308.339 94.4793 308.339 92.706C308.339 90.1727 309.074 88.2347 310.543 86.892C312.038 85.524 314.077 84.84 316.661 84.84C318.206 84.84 319.473 85.0933 320.461 85.6C321.449 86.1067 322.209 86.7907 322.741 87.652C323.298 88.488 323.678 89.4127 323.881 90.426C324.109 91.414 324.248 92.402 324.299 93.39L318.941 94.188C318.89 93.2507 318.802 92.4273 318.675 91.718C318.574 91.0087 318.346 90.4513 317.991 90.046C317.662 89.6407 317.155 89.438 316.471 89.438C315.736 89.438 315.192 89.7167 314.837 90.274C314.482 90.806 314.305 91.4013 314.305 92.06C314.305 93.1493 314.546 94.0487 315.027 94.758C315.534 95.442 316.218 96.164 317.079 96.924L320.195 99.66C321.487 100.775 322.589 102.054 323.501 103.498C324.438 104.917 324.907 106.677 324.907 108.78C324.907 110.224 324.578 111.529 323.919 112.694C323.26 113.859 322.336 114.771 321.145 115.43C319.98 116.089 318.599 116.418 317.003 116.418Z" fill="white"/>
</svg>
