<svg width="80" height="80" viewBox="0 0 80 80" fill="none" xmlns="http://www.w3.org/2000/svg">
<path opacity="0.4" d="M38.2478 57.686C48.2914 46.9396 57.9874 39.6496 70.1671 29.3258C73.8124 26.2357 74.3754 20.8192 71.5158 16.9817C68.4764 12.9032 62.7011 12.088 58.7921 15.3304C47.6357 24.584 38.9561 33.494 30.7227 43.017C30.2907 43.5166 30.0746 43.7666 29.8504 43.9073C29.2818 44.264 28.5713 44.2676 27.9991 43.917C27.7734 43.7786 27.557 43.5336 27.1241 43.0436L22.7368 38.0763C18.7337 33.5436 11.5537 34.0456 8.21138 39.0913C5.87245 42.6223 6.21905 47.3016 9.05231 50.4446L15.9321 58.0763C21.0779 63.7843 23.6508 66.6386 26.7396 66.6663C29.8283 66.6943 32.6349 63.6916 38.2478 57.686Z" fill="#FF8516"/>
<path d="M38.2478 57.686C48.2914 46.9396 57.9874 39.6496 70.1671 29.3258C73.8124 26.2357 74.3754 20.8192 71.5158 16.9817C68.4764 12.9032 62.7011 12.088 58.7921 15.3304C47.6357 24.584 38.9561 33.494 30.7227 43.017C30.2907 43.5166 30.0746 43.7666 29.8504 43.9073C29.2818 44.264 28.5713 44.2676 27.9991 43.917C27.7734 43.7786 27.557 43.5336 27.1241 43.0436L22.7368 38.0763C18.7337 33.5436 11.5537 34.0456 8.21138 39.0913C5.87245 42.6223 6.21905 47.3016 9.05231 50.4446L15.9321 58.0763C21.0779 63.7843 23.6508 66.6386 26.7396 66.6663C29.8284 66.6943 32.6349 63.6916 38.2478 57.686Z" stroke="#FF8516" stroke-width="4"/>
</svg>
