<svg width="40" height="40" viewBox="0 0 40 40" fill="none" xmlns="http://www.w3.org/2000/svg">
<rect width="40" height="40" rx="10" fill="#202020"/>
<path fill-rule="evenodd" clip-rule="evenodd" d="M15.5806 12.7265C16.963 12.4447 18.4511 12.2917 19.9999 12.2917C21.5488 12.2917 23.0369 12.4447 24.4193 12.7265L24.5254 12.7481C26.1042 13.0695 27.1562 13.2836 28.0628 14.4492C28.9596 15.6022 28.9591 16.9394 28.9583 19.0104V20.9897C28.9591 23.0607 28.9596 24.3979 28.0628 25.551C27.1562 26.7166 26.1042 26.9307 24.5254 27.252L24.4193 27.2737C23.0369 27.5554 21.5488 27.7084 19.9999 27.7084C18.4511 27.7084 16.963 27.5554 15.5806 27.2737L15.4745 27.252C13.8956 26.9307 12.8436 26.7166 11.9371 25.551C11.0403 24.3979 11.0408 23.0607 11.0415 20.9897V19.0104C11.0408 16.9394 11.0403 15.6022 11.9371 14.4492C12.8436 13.2836 13.8956 13.0695 15.4745 12.7481L15.5806 12.7265ZM19.412 16.8769C19.8441 17.0583 20.369 17.3514 21.0108 17.7099C21.0953 17.757 21.1802 17.8039 21.2652 17.8508C21.6847 18.0824 22.1066 18.3153 22.4957 18.5951C22.8454 18.8465 23.1771 19.1581 23.2869 19.6125C23.3486 19.8676 23.3486 20.1326 23.2869 20.3877C23.1771 20.8421 22.8454 21.1537 22.4957 21.4051C22.1066 21.6848 21.6846 21.9178 21.2651 22.1494C21.1801 22.1963 21.0953 22.2432 21.0108 22.2903C20.369 22.6487 19.8442 22.9418 19.412 23.1232C18.7095 23.418 17.9646 23.4419 17.3523 22.9402C16.9691 22.6262 16.8337 22.1767 16.7742 21.7237C16.6306 20.6287 16.6306 19.3719 16.7742 18.2765C16.8337 17.8235 16.9691 17.3739 17.3523 17.0599C17.9646 16.5583 18.7095 16.5821 19.412 16.8769Z" fill="white"/>
</svg>
