<svg width="90" height="90" viewBox="0 0 90 90" fill="none" xmlns="http://www.w3.org/2000/svg">
<circle cx="45" cy="45" r="45" fill="#202020"/>
<path d="M45.0041 38.7647C42.7028 38.7647 40.8374 40.1638 40.8374 41.8898C40.8374 43.6156 42.7028 45.0148 45.0041 45.0148C47.3051 45.0148 49.1707 46.4139 49.1707 48.1398C49.1707 49.8656 47.3051 51.2648 45.0041 51.2648M45.0041 38.7647C46.8182 38.7647 48.3616 39.6343 48.9334 40.8481M45.0041 38.7647V36.6814M45.0041 51.2648C43.1897 51.2648 41.6464 50.3952 41.0745 49.1814M45.0041 51.2648V53.3481" stroke="#FF8516" stroke-width="3" stroke-linecap="round"/>
<path d="M47.0835 25.2231C47.0835 25.2231 46.425 25.2231 45.0002 25.2231C35.6703 25.2231 31.0053 25.2231 28.1069 28.1215C25.2085 31.0199 25.2085 35.6849 25.2085 45.0148C25.2085 54.3446 25.2085 59.0096 28.1069 61.9081C31.0053 64.8065 35.6703 64.8065 45.0002 64.8065C54.33 64.8065 58.995 64.8065 61.8935 61.9081C64.7918 59.0096 64.7918 54.3446 64.7918 45.0148C64.7918 43.59 64.7918 42.9315 64.7918 42.9315" stroke="#FF8516" stroke-width="3" stroke-linecap="round"/>
<path d="M64.7673 25.1936L56.0677 33.8982M54.3506 26.2806L54.5968 32.7212C54.5968 34.2392 55.5033 35.185 57.1543 35.3043L63.6627 35.6103" stroke="#FF8516" stroke-width="3" stroke-linecap="round" stroke-linejoin="round"/>
</svg>
