<svg width="90" height="90" viewBox="0 0 90 90" fill="none" xmlns="http://www.w3.org/2000/svg">
<circle cx="45" cy="45" r="45" fill="#FF8516" fill-opacity="0.15"/>
<path d="M63.2792 57.5C64.8402 57.5 66.0819 56.5177 67.1969 55.144C69.479 52.3321 65.7319 50.085 64.3029 48.9846C62.85 47.8658 61.2279 47.2321 59.5833 47.0833M57.5 42.9167C60.3765 42.9167 62.7083 40.5848 62.7083 37.7083C62.7083 34.8319 60.3765 32.5 57.5 32.5" stroke="#FF8516" stroke-width="3" stroke-linecap="round"/>
<path d="M26.7209 57.5C25.1599 57.5 23.9182 56.5177 22.8034 55.144C20.5212 52.3321 24.2682 50.085 25.6973 48.9846C27.1501 47.8658 28.7722 47.2321 30.4168 47.0833M31.4585 42.9167C28.582 42.9167 26.2502 40.5848 26.2502 37.7083C26.2502 34.8319 28.582 32.5 31.4585 32.5" stroke="#FF8516" stroke-width="3" stroke-linecap="round"/>
<path d="M36.8414 51.4817C34.7127 52.798 29.1314 55.4857 32.5308 58.8488C34.1914 60.4917 36.0408 61.6667 38.3661 61.6667H51.6343C53.9595 61.6667 55.8089 60.4917 57.4695 58.8488C60.8689 55.4857 55.2877 52.798 53.1589 51.4817C48.167 48.3951 41.8333 48.3951 36.8414 51.4817Z" stroke="#FF8516" stroke-width="3" stroke-linecap="round" stroke-linejoin="round"/>
<path d="M52.2918 35.6249C52.2918 39.652 49.0272 42.9166 45.0002 42.9166C40.9731 42.9166 37.7085 39.652 37.7085 35.6249C37.7085 31.5978 40.9731 28.3333 45.0002 28.3333C49.0272 28.3333 52.2918 31.5978 52.2918 35.6249Z" stroke="#FF8516" stroke-width="3"/>
</svg>
