<svg width="90" height="90" viewBox="0 0 90 90" fill="none" xmlns="http://www.w3.org/2000/svg">
<circle cx="45" cy="45.0001" r="45" fill="#202020"/>
<path d="M47.0832 34.5833C47.0832 39.1857 43.3521 42.9167 38.7498 42.9167C34.1475 42.9167 30.4165 39.1857 30.4165 34.5833C30.4165 29.981 34.1475 26.25 38.7498 26.25C43.3521 26.25 47.0832 29.981 47.0832 34.5833Z" stroke="#FF8516" stroke-width="3"/>
<path d="M51.25 42.9167C55.8523 42.9167 59.5833 39.1857 59.5833 34.5833C59.5833 29.981 55.8523 26.25 51.25 26.25" stroke="#FF8516" stroke-width="3" stroke-linecap="round" stroke-linejoin="round"/>
<path d="M42.9165 49.1667H34.5832C28.8302 49.1667 24.1665 53.8304 24.1665 59.5834C24.1665 61.8846 26.032 63.75 28.3332 63.75H49.1665C51.4678 63.75 53.3332 61.8846 53.3332 59.5834C53.3332 53.8304 48.6694 49.1667 42.9165 49.1667Z" stroke="#FF8516" stroke-width="3" stroke-linejoin="round"/>
<path d="M55.4165 49.1667C61.1694 49.1667 65.8332 53.8304 65.8332 59.5834C65.8332 61.8846 63.9678 63.75 61.6665 63.75H58.5415" stroke="#FF8516" stroke-width="3" stroke-linecap="round" stroke-linejoin="round"/>
</svg>
