<svg width="90" height="90" viewBox="0 0 90 90" fill="none" xmlns="http://www.w3.org/2000/svg">
<circle cx="45" cy="45" r="45" fill="#2F2B6F" fill-opacity="0.15"/>
<path d="M50.2083 65.8333L49.551 64.9606C48.0694 62.9935 47.7019 59.9883 48.6392 57.5" stroke="#2F2B6F" stroke-width="3" stroke-linecap="round"/>
<path d="M39.7915 65.8333L40.4488 64.9606C41.9305 62.9935 42.298 59.9883 41.3607 57.5" stroke="#2F2B6F" stroke-width="3" stroke-linecap="round"/>
<path d="M34.5835 65.8334H55.4168" stroke="#2F2B6F" stroke-width="3" stroke-linecap="round"/>
<path d="M45.0002 34.5833C42.6989 34.5833 40.8335 35.9824 40.8335 37.7083C40.8335 39.4342 42.6989 40.8333 45.0002 40.8333C47.3014 40.8333 49.1668 42.2325 49.1668 43.9583C49.1668 45.6842 47.3014 47.0833 45.0002 47.0833M45.0002 34.5833C46.8143 34.5833 48.3577 35.4529 48.9297 36.6667M45.0002 34.5833V32.5M45.0002 47.0833C43.186 47.0833 41.6427 46.2137 41.0706 45M45.0002 47.0833V49.1667" stroke="#2F2B6F" stroke-width="3" stroke-linecap="round"/>
<path d="M49.1665 24.1666H40.8332C34.0014 24.1666 30.5856 24.1666 28.1642 25.8621C27.2684 26.4893 26.4892 27.2685 25.862 28.1644C24.1665 30.5857 24.1665 34.0016 24.1665 40.8333C24.1665 47.665 24.1665 51.0808 25.862 53.5023C26.4892 54.3981 27.2684 55.1772 28.1642 55.8045C30.5856 57.5 34.0014 57.5 40.8332 57.5H49.1665C55.9982 57.5 59.414 57.5 61.8355 55.8045C62.7313 55.1772 63.5105 54.3981 64.1378 53.5023C65.8332 51.0808 65.8332 47.665 65.8332 40.8333C65.8332 34.0016 65.8332 30.5857 64.1378 28.1644C63.5105 27.2685 62.7313 26.4893 61.8355 25.8621C59.414 24.1666 55.9982 24.1666 49.1665 24.1666Z" stroke="#2F2B6F" stroke-width="3" stroke-linecap="round"/>
</svg>
