<svg width="59" height="61" viewBox="0 0 59 61" fill="none" xmlns="http://www.w3.org/2000/svg">
<path fill-rule="evenodd" clip-rule="evenodd" d="M30.4769 44.5161C22.7231 44.5161 16.4373 38.2304 16.4373 30.4765C16.4373 22.7226 22.7231 16.4368 30.4769 16.4368C38.2308 16.4368 44.5166 22.7226 44.5166 30.4765C44.5166 38.2304 38.2308 44.5161 30.4769 44.5161ZM30.477 37.6674C26.5055 37.6674 23.286 34.4478 23.286 30.4763C23.286 26.5048 26.5055 23.2853 30.477 23.2853C34.4485 23.2853 37.6681 26.5048 37.6681 30.4763C37.6681 34.4478 34.4485 37.6674 30.477 37.6674Z" fill="#001B2E"/>
<path fill-rule="evenodd" clip-rule="evenodd" d="M0.000126638 30.3051C0.000126638 47.0422 13.5682 60.6102 30.3052 60.6102C43.6228 60.6102 54.934 52.0199 59 40.0781H51.6354C47.9293 48.1534 39.7723 53.7615 30.3055 53.7615C17.3509 53.7615 6.84902 43.2597 6.84902 30.305C6.84902 17.3504 17.3509 6.84852 30.3055 6.84852C39.7313 6.84852 47.8585 12.4081 51.5868 20.4269H58.964C54.8675 8.53989 43.5837 0 30.3052 0C13.5682 0 0.000126638 13.5681 0.000126638 30.3051Z" fill="#2F2B6F"/>
</svg>
