<svg version="1.1" id="Layer_1" xmlns="http://www.w3.org/2000/svg" xmlns:xlink="http://www.w3.org/1999/xlink" x="0px" y="0px"
	 width="100%" viewBox="0 0 2688 1878" enable-background="new 0 0 2688 1878" xml:space="preserve">
<path fill="#2F2B6F" opacity="1.000000" stroke="none" 
	d="
M1520.000000,1880.000000 
	C1013.333313,1880.000000 507.666656,1880.000000 2.000000,1880.000000 
	C2.000000,1254.000000 2.000000,628.000000 2.000000,2.000000 
	C898.000000,2.000000 1794.000000,2.000000 2690.000000,2.000000 
	C2690.000000,628.000000 2690.000000,1254.000000 2690.000000,1880.000000 
	C2300.333252,1880.000000 1910.666626,1880.000000 1520.000000,1880.000000 
M1336.056274,1141.000000 
	C1336.053345,1102.355225 1336.346069,1063.706665 1335.829712,1025.068726 
	C1335.707642,1015.928772 1334.156128,1006.346863 1330.990112,997.810913 
	C1325.515503,983.051025 1314.217773,975.268738 1297.856689,975.319580 
	C1281.504517,975.370422 1267.240234,980.808167 1254.375732,990.552063 
	C1251.886597,992.437256 1249.297363,994.190063 1244.996826,997.257629 
	C1244.996826,961.292542 1244.996826,927.490234 1244.996826,893.138611 
	C1226.070923,893.138611 1208.282349,893.138611 1189.910156,893.138611 
	C1189.910156,993.462341 1189.910156,1093.248779 1189.910156,1193.336914 
	C1208.291870,1193.336914 1226.126099,1193.336914 1245.189819,1193.336914 
	C1245.189819,1189.227905 1245.189941,1185.643188 1245.189941,1182.058472 
	C1245.189941,1143.413818 1245.189331,1104.769165 1245.190430,1066.124512 
	C1245.190674,1054.464478 1245.030884,1042.800415 1245.320190,1031.147461 
	C1245.387573,1028.430908 1246.224365,1024.238892 1248.022217,1023.331726 
	C1254.131592,1020.249146 1260.667236,1017.385132 1267.348755,1016.241211 
	C1273.846680,1015.128784 1277.312744,1018.281982 1278.791992,1024.755371 
	C1279.742676,1028.915649 1279.885986,1033.326904 1279.892578,1037.626465 
	C1279.965698,1085.598999 1279.932129,1133.571777 1279.961914,1181.544434 
	C1279.964233,1185.407471 1280.222412,1189.270142 1280.367310,1193.284180 
	C1299.302368,1193.284180 1317.122559,1193.284180 1336.056396,1193.284180 
	C1336.056396,1176.133545 1336.056396,1159.566772 1336.056274,1141.000000 
M1464.324463,1193.753784 
	C1471.303467,1193.753784 1478.282349,1193.753784 1485.792236,1193.753784 
	C1486.621338,1190.693604 1487.484253,1187.872681 1488.148071,1185.005493 
	C1505.417603,1110.429688 1522.659302,1035.847290 1539.945679,961.275391 
	C1540.561035,958.620728 1541.579956,956.059570 1542.410767,953.454895 
	C1543.082642,953.583801 1543.754395,953.712708 1544.426270,953.841614 
	C1544.426270,1033.661377 1544.426270,1113.481079 1544.426270,1193.148438 
	C1552.808960,1193.148438 1560.271362,1193.148438 1567.652954,1193.148438 
	C1569.600952,1169.465088 1568.700562,889.319092 1566.720581,882.051514 
	C1556.111572,882.051514 1545.511597,882.051514 1535.130737,882.051514 
	C1515.076538,969.971130 1495.120239,1057.461182 1475.164062,1144.951172 
	C1474.393921,1144.923462 1473.623779,1144.895874 1472.853516,1144.868286 
	C1453.278809,1057.338867 1433.703979,969.809570 1414.098267,882.141968 
	C1402.633423,882.141968 1391.776733,882.141968 1380.511475,882.141968 
	C1380.511475,986.078735 1380.511475,1089.517822 1380.511475,1193.331787 
	C1388.555054,1193.331787 1396.019287,1193.331787 1404.416992,1193.331787 
	C1404.416992,1113.164307 1404.416992,1033.550415 1404.416992,953.936462 
	C1406.690674,955.801941 1407.541504,957.842285 1408.033325,959.965759 
	C1422.076050,1020.596741 1436.032349,1081.247681 1450.127441,1141.866455 
	C1454.117554,1159.026367 1458.495605,1176.096191 1464.324463,1193.753784 
M720.138489,1152.198364 
	C697.958557,1152.087891 675.778625,1151.977417 653.479675,1151.866333 
	C653.479675,1119.947632 653.479675,1089.456055 653.479675,1057.872070 
	C671.325500,1057.872070 688.496277,1057.872070 705.746460,1057.872070 
	C705.746460,1042.994019 705.746460,1029.232300 705.746460,1015.158936 
	C687.781250,1014.411865 670.553345,1015.569580 653.479065,1014.480713 
	C653.479065,987.521484 653.479065,962.019714 653.479065,935.320923 
	C676.633423,935.320923 699.112305,935.320923 722.007568,935.320923 
	C722.007568,920.610596 722.007568,907.110474 722.007568,893.712891 
	C709.344971,891.559814 599.062561,892.171753 592.242432,894.346130 
	C592.242432,993.838440 592.242432,1093.345459 592.242432,1192.746338 
	C606.144409,1194.967896 716.242249,1194.308472 723.589661,1191.881104 
	C723.589661,1180.440430 723.649658,1168.800781 723.515808,1157.163452 
	C723.498535,1155.661377 722.477600,1154.170776 720.138489,1152.198364 
M1458.586060,599.455811 
	C1385.694946,599.455811 1312.803711,599.455811 1240.423706,599.455811 
	C1223.121338,563.071411 1198.687866,548.214172 1167.406250,554.299622 
	C1140.520386,559.529968 1119.499512,583.837097 1118.140259,611.267395 
	C1116.735474,639.618591 1134.801758,665.682861 1161.652710,673.663818 
	C1175.143677,677.673706 1188.615967,677.321960 1201.828735,672.182068 
	C1221.484497,664.535645 1233.339844,649.601868 1239.775879,630.424805 
	C1315.614380,630.424805 1390.541382,630.424805 1465.823364,630.424805 
	C1466.872681,632.976257 1467.857666,635.413879 1468.874756,637.838013 
	C1479.056641,662.105530 1501.531982,677.043274 1527.846924,676.105713 
	C1553.156250,675.203979 1571.616699,662.716797 1582.017578,639.843018 
	C1592.481079,616.831543 1589.140015,594.649292 1573.044434,575.313232 
	C1556.862183,555.873047 1535.424561,549.439636 1510.995605,555.178589 
	C1490.472900,560.000000 1476.461304,573.202881 1468.544312,592.664490 
	C1466.933350,596.624512 1465.793335,600.294861 1458.586060,599.455811 
M785.280151,982.182068 
	C761.036316,994.910095 745.703918,1024.627319 750.744507,1049.646118 
	C767.543701,1050.378052 784.429138,1051.113647 801.684692,1051.865479 
	C802.732971,1043.421143 803.219666,1035.759033 804.734924,1028.306152 
	C806.373230,1020.247864 810.924133,1017.301208 819.144653,1017.618042 
	C826.570312,1017.904358 831.111206,1021.200867 831.735107,1029.080078 
	C832.541687,1039.265503 831.931702,1049.563232 831.931702,1060.495483 
	C828.647217,1061.758545 825.262329,1063.032104 821.898254,1064.358398 
	C806.404602,1070.467407 790.880981,1076.495239 777.028931,1086.030029 
	C767.559570,1092.547852 759.232849,1100.252319 753.873413,1110.467773 
	C742.594177,1131.967041 741.442505,1153.849121 753.850342,1175.285278 
	C769.667358,1202.610840 813.362732,1208.032227 830.842102,1174.593384 
	C832.015503,1172.348511 833.506897,1170.269897 835.913513,1166.407837 
	C837.711182,1176.635742 839.173828,1184.957275 840.625488,1193.216553 
	C857.658997,1193.216553 873.784973,1193.216553 890.374573,1193.216553 
	C890.159790,1189.561035 889.960999,1186.610840 889.817078,1183.657959 
	C889.023132,1167.369507 887.761597,1151.086304 887.562012,1134.790283 
	C887.194885,1104.809082 887.539490,1074.819946 887.388428,1044.835083 
	C887.354919,1038.195801 886.904175,1031.500610 885.940857,1024.934570 
	C882.061340,998.491821 865.335449,980.551636 839.786987,976.619141 
	C821.847839,973.857849 803.885559,974.542908 785.280151,982.182068 
M1449.806519,725.148804 
	C1470.065552,738.966248 1492.317749,746.855530 1516.879395,748.576782 
	C1602.612305,754.584900 1672.128906,678.757812 1658.482666,593.934265 
	C1649.192139,536.186707 1603.196289,490.077698 1546.932007,482.109192 
	C1486.269043,473.517792 1429.426880,504.002136 1404.202637,558.701721 
	C1402.589478,562.199951 1401.304688,565.849670 1399.290405,570.865051 
	C1410.418823,570.865051 1419.973267,571.011047 1429.514526,570.720337 
	C1431.092529,570.672241 1432.953735,568.985962 1434.078369,567.574219 
	C1435.719727,565.513611 1436.752075,562.978760 1438.148438,560.710205 
	C1463.467529,519.576660 1513.633301,501.405090 1559.105835,516.879211 
	C1605.074341,532.522095 1634.413452,578.038330 1628.378418,626.080688 
	C1622.973633,669.106262 1599.214478,698.845459 1558.240601,712.519348 
	C1517.541260,726.101562 1481.279297,715.949463 1451.169434,685.476746 
	C1444.937500,679.169800 1440.580933,671.026611 1435.207520,663.843811 
	C1433.712646,661.845642 1431.758423,658.835022 1429.865479,658.718506 
	C1420.118774,658.118652 1410.310791,658.059326 1400.324829,658.653076 
	C1406.118164,683.200745 1428.914062,711.179016 1449.806519,725.148804 
M1054.883057,664.110657 
	C1056.072510,666.861755 1057.095093,669.699707 1058.475952,672.351074 
	C1084.357910,722.044312 1125.225220,749.150513 1181.339600,748.524475 
	C1237.091187,747.902527 1277.017822,719.904236 1301.758789,670.143433 
	C1303.451172,666.739563 1304.550781,663.040894 1306.361572,658.351807 
	C1298.004272,658.351807 1291.334229,658.755493 1284.734619,658.246399 
	C1277.030273,657.652100 1272.448853,659.980835 1268.141113,667.190369 
	C1249.389526,698.573547 1221.210938,716.035583 1184.660889,717.812744 
	C1116.355469,721.133850 1067.658813,659.989502 1077.659302,598.152466 
	C1086.714844,542.157471 1142.283447,502.244965 1197.926514,513.085876 
	C1229.560547,519.249146 1253.295532,536.499756 1269.679810,564.147095 
	C1271.127319,566.589722 1272.952393,569.276855 1275.305176,570.600525 
	C1278.502197,572.399170 1301.313354,570.550842 1305.390991,568.987549 
	C1282.598755,501.513611 1206.359497,464.473999 1137.490601,487.354614 
	C1067.022461,510.766449 1026.622314,588.393982 1054.883057,664.110657 
M1068.070679,919.581360 
	C1068.063965,929.238892 1068.117065,938.896973 1068.033691,948.553894 
	C1067.948730,958.402893 1068.399658,968.287109 1067.722778,978.288513 
	C1060.272583,978.676880 1054.071045,979.000183 1047.173584,979.359741 
	C1046.677734,991.906982 1046.432251,1003.614807 1047.304688,1016.263245 
	C1054.789429,1016.263245 1060.972290,1016.263245 1068.050293,1016.263245 
	C1068.050293,1020.830200 1068.049927,1024.419800 1068.050293,1028.009521 
	C1068.054443,1063.975586 1067.919067,1099.942505 1068.167480,1135.906860 
	C1068.224609,1144.181763 1068.959473,1152.568481 1070.496094,1160.693115 
	C1073.956543,1178.990601 1085.400269,1190.023560 1103.506592,1193.855347 
	C1121.994995,1197.767822 1140.464355,1196.207153 1159.267578,1193.225342 
	C1159.267578,1178.693359 1159.267578,1164.620850 1159.267578,1149.996826 
	C1154.203125,1150.286621 1149.927002,1150.672241 1145.645264,1150.750610 
	C1131.107422,1151.017212 1125.679199,1145.807861 1125.225586,1131.323608 
	C1125.194336,1130.325439 1125.206299,1129.325684 1125.206299,1128.326660 
	C1125.204712,1094.358765 1125.187134,1060.390869 1125.231079,1026.422974 
	C1125.235229,1023.215149 1125.628052,1020.007812 1125.907959,1015.779663 
	C1136.136963,1015.779663 1145.631592,1015.779663 1155.640381,1015.779663 
	C1155.640381,1003.179382 1155.640381,991.668030 1155.640381,978.671509 
	C1145.616943,978.671509 1135.858154,978.671509 1124.976074,978.671509 
	C1124.976074,956.385864 1124.976074,935.557678 1124.976074,914.037537 
	C1106.541504,914.037537 1089.268555,913.958984 1072.000122,914.195557 
	C1070.701294,914.213318 1069.433105,916.478333 1068.070679,919.581360 
M980.349609,1137.000000 
	C980.350098,1110.676636 980.263000,1084.352539 980.457275,1058.030518 
	C980.482788,1054.566406 981.053833,1050.518921 982.893433,1047.753540 
	C992.794617,1032.870117 1009.167725,1026.852661 1026.577148,1031.039429 
	C1029.312500,1031.697266 1032.089111,1032.183472 1035.237061,1032.828979 
	C1035.237061,1013.991699 1035.237061,996.107910 1035.237061,978.253662 
	C1030.217773,975.163513 1025.211060,976.140991 1020.344910,976.878235 
	C1009.154846,978.573181 1000.818848,985.010620 993.975647,993.583313 
	C989.911255,998.674866 986.148315,1004.006897 982.249817,1009.230835 
	C981.610535,1009.099121 980.971252,1008.967407 980.331970,1008.835754 
	C980.331970,999.134827 980.331970,989.433899 980.331970,978.810425 
	C960.909424,979.043274 942.836548,978.322754 924.945557,979.235168 
	C922.993713,1000.848083 923.824463,1185.759277 925.824768,1193.296143 
	C943.605164,1193.296143 961.436951,1193.296143 980.349670,1193.296143 
	C980.349670,1174.812988 980.349670,1156.906494 980.349609,1137.000000 
M1652.366577,1081.470581 
	C1645.566772,1086.248169 1638.560669,1090.760010 1632.004639,1095.851318 
	C1608.458984,1114.136108 1604.480103,1138.948608 1610.500732,1165.997803 
	C1615.302124,1187.569336 1637.146118,1201.692871 1658.080933,1197.918335 
	C1671.391724,1195.518433 1681.889648,1187.999512 1690.412598,1177.635620 
	C1692.390137,1175.230835 1694.422729,1172.871460 1697.200684,1169.577271 
	C1698.604492,1178.530396 1699.763794,1185.924316 1700.921509,1193.307861 
	C1709.522583,1193.307861 1717.356323,1193.307861 1725.921631,1193.307861 
	C1725.249634,1185.455444 1724.190063,1178.243774 1724.088379,1171.018555 
	C1723.568726,1134.037842 1723.330933,1097.053223 1722.916504,1060.070801 
	C1722.785889,1048.412354 1723.378296,1036.628662 1721.854858,1025.138916 
	C1720.564819,1015.407898 1717.672485,1005.578918 1713.633789,996.630615 
	C1710.900269,990.574280 1705.854492,984.568359 1700.275513,980.969910 
	C1681.146851,968.631958 1660.431641,967.305481 1640.651611,978.655334 
	C1620.665283,990.123596 1614.673950,1009.954529 1612.667847,1031.793945 
	C1622.679321,1031.793945 1631.546143,1031.793945 1640.805786,1031.793945 
	C1641.220825,1027.984741 1641.218018,1024.602661 1642.014160,1021.420471 
	C1643.618652,1015.007141 1644.854004,1008.312561 1647.702148,1002.442688 
	C1652.207397,993.158142 1660.488525,989.419678 1670.802368,989.966980 
	C1680.609985,990.487427 1685.494141,996.727539 1688.741943,1004.954895 
	C1689.593384,1007.111938 1690.513550,1009.347595 1690.766235,1011.618042 
	C1692.384644,1026.155151 1693.782104,1040.716675 1695.350952,1055.259399 
	C1695.844727,1059.834839 1693.143188,1061.551025 1689.523438,1063.249512 
	C1677.474976,1068.903198 1665.566162,1074.853882 1652.366577,1081.470581 
M1972.087036,1034.594360 
	C1971.034790,1022.257019 1968.782593,1010.185242 1963.792603,998.772583 
	C1957.447754,984.261475 1946.477905,974.759766 1930.852539,972.753113 
	C1920.791626,971.460999 1910.191040,971.957275 1900.140625,973.571045 
	C1885.769897,975.878601 1875.290527,984.736572 1869.404907,998.052917 
	C1866.204712,1005.293396 1863.437622,1013.009033 1862.198730,1020.784973 
	C1855.656250,1061.846680 1856.579346,1103.076172 1861.303955,1144.223633 
	C1862.315063,1153.029175 1865.061279,1161.815186 1868.212036,1170.155518 
	C1873.640625,1184.525879 1884.047852,1194.199341 1899.515381,1196.479370 
	C1909.289551,1197.920410 1919.483032,1198.629639 1929.243530,1197.517090 
	C1941.588745,1196.109863 1951.722290,1189.445679 1958.455322,1178.590576 
	C1968.031006,1163.152466 1970.840088,1145.924683 1972.155029,1127.714111 
	C1963.274780,1127.186035 1955.165039,1126.233643 1946.936768,1128.248535 
	C1946.615112,1133.181519 1946.776123,1137.575195 1945.956421,1141.777710 
	C1944.500610,1149.240723 1943.345703,1156.961548 1940.448853,1163.899902 
	C1935.471313,1175.821777 1926.594238,1180.612671 1914.469360,1180.097656 
	C1902.117798,1179.572754 1894.967407,1172.538818 1891.079224,1161.609619 
	C1889.531128,1157.257935 1888.190796,1152.615601 1887.968506,1148.046631 
	C1886.999390,1128.109497 1886.443848,1108.151733 1885.830566,1088.198608 
	C1885.752563,1085.665894 1886.218994,1083.116211 1886.490845,1079.891113 
	C1915.295288,1079.891113 1943.502686,1079.891113 1972.044556,1079.891113 
	C1974.019287,1064.921143 1973.052002,1050.659058 1972.087036,1034.594360 
M2035.644287,1040.779541 
	C2029.579590,1032.435913 2028.242798,1023.042969 2030.057251,1013.192383 
	C2031.875122,1003.323547 2037.283081,995.831421 2047.092163,992.843750 
	C2057.112305,989.791931 2066.082275,992.091553 2073.451904,1000.046875 
	C2079.742920,1006.837769 2083.533203,1014.830688 2085.949707,1023.614990 
	C2086.894043,1027.046753 2087.864502,1030.471313 2088.962646,1034.399170 
	C2097.172852,1031.809082 2104.633301,1029.455444 2112.780518,1026.885254 
	C2111.117188,1021.805786 2110.047607,1017.631714 2108.390869,1013.705383 
	C2106.198730,1008.509399 2103.826904,1003.348206 2101.043945,998.449524 
	C2089.132812,977.482117 2070.732666,969.287598 2047.268555,972.348022 
	C2027.824707,974.884094 2012.345337,983.652222 2005.513306,1003.190430 
	C1999.017944,1021.765686 2000.868652,1039.539673 2014.179932,1054.706421 
	C2022.502197,1064.188843 2031.786377,1072.852905 2040.923218,1081.586670 
	C2050.067383,1090.327271 2060.097900,1098.197021 2068.740234,1107.388184 
	C2075.742676,1114.835083 2081.941895,1123.262573 2087.260742,1132.007080 
	C2093.359619,1142.033813 2092.677490,1153.060303 2088.153076,1163.729248 
	C2084.640381,1172.012451 2078.382324,1176.807007 2069.375000,1178.339233 
	C2056.500000,1180.529053 2046.042725,1175.967529 2038.609619,1166.027954 
	C2032.493774,1157.849731 2028.039307,1148.423340 2022.923828,1139.506958 
	C2021.666016,1137.314697 2020.701294,1134.954346 2019.507446,1132.474854 
	C2012.600586,1134.815796 2006.392090,1136.920044 1999.760498,1139.167725 
	C2001.553223,1150.496460 2006.091064,1159.988403 2011.691406,1169.041382 
	C2025.515015,1191.387207 2045.333496,1201.187012 2071.636230,1198.123535 
	C2096.413086,1195.237793 2113.945557,1178.252686 2116.583984,1153.498779 
	C2118.689697,1133.744263 2112.354004,1116.354980 2098.871582,1102.313843 
	C2085.987061,1088.895508 2071.589355,1076.941406 2058.087158,1064.101074 
	C2050.627686,1057.007080 2043.641968,1049.415283 2035.644287,1040.779541 
M1771.719482,1072.999878 
	C1771.751953,1098.659668 1771.467651,1124.326050 1771.995239,1149.975708 
	C1772.171021,1158.511841 1773.874390,1167.138062 1775.871582,1175.485596 
	C1778.534180,1186.614502 1786.667480,1192.999878 1797.382080,1195.532715 
	C1809.255371,1198.339600 1821.147705,1197.274048 1833.096680,1193.675903 
	C1833.096680,1187.824219 1833.096680,1182.301392 1833.096680,1176.232788 
	C1830.059204,1176.232788 1827.490112,1176.213745 1824.921143,1176.237793 
	C1821.923462,1176.265747 1818.915771,1176.514282 1815.930420,1176.346802 
	C1806.683594,1175.827881 1801.706177,1171.745972 1800.331055,1162.633667 
	C1799.340942,1156.073242 1798.998657,1149.361816 1798.983154,1142.716309 
	C1798.873535,1096.062134 1798.923706,1049.407471 1798.922852,1002.753052 
	C1798.922852,999.480286 1798.922852,996.207520 1798.922852,991.744507 
	C1810.836548,991.744507 1821.974121,991.744507 1833.236328,991.744507 
	C1833.236328,986.054382 1833.236328,981.579773 1833.236328,975.907593 
	C1821.550781,975.907593 1810.431519,975.907593 1798.544434,975.907593 
	C1798.544434,949.841370 1798.544434,924.982666 1798.544434,900.023743 
	C1789.225342,900.023743 1780.766479,900.023743 1771.500244,900.023743 
	C1771.500244,925.532349 1771.500244,950.408264 1771.500244,976.548828 
	C1761.296997,976.548828 1751.873657,976.548828 1742.810059,976.548828 
	C1742.810059,982.322571 1742.810059,986.790771 1742.810059,992.207581 
	C1752.741089,992.207581 1761.906616,992.207581 1771.719482,992.207581 
	C1771.719482,1019.126465 1771.719482,1045.063110 1771.719482,1072.999878 
M1411.624268,1373.659424 
	C1412.774414,1375.565186 1413.924683,1377.470947 1414.890503,1379.071289 
	C1412.465576,1384.974854 1406.922119,1388.963745 1407.910889,1395.815918 
	C1410.126953,1397.257080 1412.248413,1398.636841 1414.172852,1399.888428 
	C1410.856689,1404.161255 1407.258545,1407.683105 1405.042114,1411.926880 
	C1402.074097,1417.609375 1403.506836,1422.507690 1408.759888,1424.408203 
	C1420.999878,1428.836060 1433.641235,1429.805664 1445.457031,1423.428467 
	C1454.939209,1418.311157 1454.610229,1405.970459 1445.029541,1401.059937 
	C1440.097900,1398.532227 1434.409912,1397.434082 1429.007812,1395.884888 
	C1424.715332,1394.653809 1420.338257,1393.718506 1415.129028,1392.438232 
	C1417.010864,1388.015625 1418.263794,1385.070923 1419.407959,1382.382080 
	C1445.473755,1382.356445 1450.487427,1375.657593 1448.137451,1344.478027 
	C1450.654663,1340.756592 1459.540527,1340.005127 1454.292480,1330.985352 
	C1450.967773,1334.113159 1447.841309,1337.054443 1444.702148,1340.007690 
	C1443.620483,1338.985840 1442.891357,1338.323608 1442.191406,1337.631714 
	C1430.106201,1325.686890 1415.091675,1329.020020 1409.424316,1345.108032 
	C1406.200684,1354.259521 1406.968384,1363.407227 1411.624268,1373.659424 
M1386.162476,1376.981812 
	C1386.162476,1385.839355 1386.162476,1394.696899 1386.162476,1404.090088 
	C1390.130981,1403.797729 1392.616333,1403.614746 1395.681641,1403.388916 
	C1395.681641,1383.472046 1395.690063,1364.234619 1395.656616,1344.997192 
	C1395.654907,1344.021240 1395.346558,1343.031372 1395.090088,1342.072266 
	C1392.448486,1332.190674 1384.572998,1328.143311 1375.212402,1331.984375 
	C1372.858276,1332.950317 1370.704834,1334.405396 1368.598389,1335.559448 
	C1364.047729,1332.036499 1364.047729,1332.036499 1358.241577,1333.498291 
	C1358.241577,1356.699951 1358.241577,1379.901489 1358.241577,1403.557739 
	C1361.189209,1403.557739 1363.709839,1403.557739 1367.221313,1403.557739 
	C1367.221313,1399.860229 1367.221313,1396.597046 1367.221313,1393.333862 
	C1367.221436,1380.028687 1367.214355,1366.723389 1367.228394,1353.418213 
	C1367.230835,1351.091431 1367.045654,1348.717651 1367.431519,1346.447754 
	C1368.248535,1341.639893 1374.243774,1337.394409 1379.276001,1337.776245 
	C1383.751465,1338.115845 1385.874023,1340.642334 1386.049683,1347.056396 
	C1386.304443,1356.363281 1386.145142,1365.681519 1386.162476,1376.981812 
M1116.191895,1330.992310 
	C1112.937622,1332.462769 1109.683350,1333.933228 1106.429077,1335.403687 
	C1106.522339,1334.936523 1106.615723,1334.469360 1106.708984,1334.002197 
	C1103.328735,1333.326050 1099.948364,1332.649780 1096.286621,1331.917358 
	C1096.286621,1356.624268 1096.286621,1379.857178 1096.286621,1403.552002 
	C1099.246704,1403.552002 1101.776123,1403.552002 1105.331299,1403.552002 
	C1105.331299,1399.888062 1105.331421,1396.622559 1105.331421,1393.356934 
	C1105.331543,1380.027222 1105.324951,1366.697388 1105.337646,1353.367676 
	C1105.339844,1351.036255 1105.145142,1348.658203 1105.526489,1346.383057 
	C1106.332642,1341.573242 1112.376343,1337.355103 1117.435059,1337.791382 
	C1121.915771,1338.177734 1123.956787,1340.644165 1124.085449,1347.185547 
	C1124.314697,1358.844727 1124.177734,1370.511108 1124.188232,1382.174561 
	C1124.194458,1389.106934 1124.189453,1396.039429 1124.189453,1403.829834 
	C1127.889404,1403.665161 1130.584473,1403.545166 1133.786499,1403.402710 
	C1133.786499,1383.562866 1134.140015,1364.600342 1133.643311,1345.660156 
	C1133.379517,1335.605591 1128.284912,1331.483643 1116.191895,1330.992310 
M1514.048340,1332.478882 
	C1498.752808,1327.853027 1490.153809,1332.824463 1487.289795,1348.005127 
	C1487.189453,1348.537476 1487.702026,1349.185547 1488.106812,1350.245361 
	C1490.454834,1350.245361 1492.988403,1350.245361 1495.585815,1350.245361 
	C1496.423096,1347.458374 1496.573242,1344.442871 1498.099731,1342.520386 
	C1499.968628,1340.166626 1502.798096,1337.654297 1505.561157,1337.159424 
	C1509.213501,1336.505615 1511.574707,1339.648315 1512.149170,1343.267944 
	C1513.014771,1348.722412 1513.539795,1354.230713 1514.093018,1358.761963 
	C1506.292603,1363.497314 1499.549194,1367.122437 1493.323364,1371.486084 
	C1485.099243,1377.250122 1484.268433,1385.972412 1486.184814,1394.816406 
	C1488.174927,1404.000244 1498.309692,1408.061401 1506.688232,1403.512207 
	C1509.196289,1402.150513 1511.414673,1400.255127 1514.530151,1398.067383 
	C1515.717041,1404.395630 1519.101074,1405.105713 1523.502563,1403.176758 
	C1523.502563,1385.996704 1523.701904,1369.377563 1523.411255,1352.767212 
	C1523.282471,1345.409668 1522.225220,1338.043335 1514.048340,1332.478882 
M1044.226685,1351.447510 
	C1044.469849,1364.036987 1043.828613,1376.724609 1045.213135,1389.187256 
	C1046.510254,1400.862915 1052.739502,1405.655029 1062.792358,1405.741821 
	C1072.894287,1405.828979 1079.052490,1401.042847 1080.654907,1389.522827 
	C1082.062500,1379.403198 1081.941406,1369.030273 1081.924561,1358.770142 
	C1081.915894,1353.523804 1081.217896,1348.126099 1079.835205,1343.069214 
	C1077.526001,1334.622192 1071.340576,1330.328613 1062.997192,1330.314453 
	C1054.660767,1330.300293 1048.834229,1334.595703 1046.027466,1342.992920 
	C1045.293823,1345.187622 1044.921143,1347.502808 1044.226685,1351.447510 
M1677.906128,1401.194458 
	C1686.607300,1409.570068 1694.165771,1404.445312 1701.975708,1398.521973 
	C1703.944092,1403.382446 1706.837402,1405.728271 1711.583862,1403.094849 
	C1711.583862,1385.809814 1711.672119,1368.903564 1711.507446,1351.999878 
	C1711.475586,1348.730103 1710.736206,1345.389648 1709.831909,1342.222168 
	C1708.031616,1335.914673 1703.675293,1332.233643 1697.248291,1330.846558 
	C1686.407593,1328.506836 1678.008911,1334.720459 1675.517944,1347.129028 
	C1675.345825,1347.986206 1675.793335,1348.967773 1676.016846,1350.262207 
	C1678.682617,1350.262207 1681.183594,1350.262207 1683.732788,1350.262207 
	C1684.388062,1347.969482 1685.000122,1346.085449 1685.460693,1344.165039 
	C1686.512207,1339.780151 1689.127930,1336.876099 1693.714478,1337.003296 
	C1698.716675,1337.141968 1700.187378,1341.231201 1700.796265,1345.276733 
	C1701.518921,1350.077393 1701.670410,1354.964111 1702.016846,1359.174438 
	C1695.183838,1363.044556 1689.118286,1365.873657 1683.725342,1369.660889 
	C1672.581055,1377.486938 1670.559814,1387.498047 1677.906128,1401.194458 
M1231.565430,1335.407715 
	C1217.043213,1325.366821 1203.313843,1330.472290 1200.480225,1347.492065 
	C1199.234009,1354.977539 1199.343506,1362.764282 1199.551392,1370.394775 
	C1199.758667,1377.994507 1200.099854,1385.741699 1201.765747,1393.111450 
	C1203.772339,1401.988525 1209.559692,1405.658569 1218.541138,1405.705933 
	C1226.697144,1405.749023 1232.095459,1401.922119 1234.807739,1393.620728 
	C1235.821899,1390.516479 1236.020020,1387.136475 1236.461426,1383.864624 
	C1236.525269,1383.391724 1235.864746,1382.820923 1235.326904,1381.951660 
	C1233.284058,1382.075928 1231.053833,1382.211548 1228.811401,1382.347900 
	C1228.265869,1385.756592 1228.110229,1388.777100 1227.257446,1391.586060 
	C1225.914917,1396.009277 1223.225342,1399.474731 1218.057739,1399.162598 
	C1213.521606,1398.888550 1210.884644,1395.957275 1209.956787,1391.606934 
	C1208.225830,1383.489990 1207.600708,1375.346313 1209.458130,1366.304688 
	C1218.664673,1366.304688 1227.540283,1366.304688 1237.161621,1366.304688 
	C1237.763062,1355.456055 1237.721191,1345.692139 1231.565430,1335.407715 
M1150.900879,1403.965088 
	C1154.697144,1404.382690 1157.444092,1403.696045 1157.341309,1398.905396 
	C1157.191528,1391.921021 1157.324463,1384.930664 1157.330688,1377.942871 
	C1157.339233,1368.292969 1157.183716,1358.639526 1157.402710,1348.994385 
	C1157.548340,1342.576904 1162.780518,1337.694336 1168.809937,1337.774170 
	C1173.920410,1337.841797 1176.019287,1340.691528 1176.143188,1348.506470 
	C1176.296143,1358.153931 1176.187134,1367.805786 1176.189087,1377.455688 
	C1176.190796,1386.025513 1176.189453,1394.595215 1176.189453,1403.584229 
	C1179.795288,1403.584229 1182.300415,1403.584229 1185.896973,1403.584229 
	C1185.896973,1399.273926 1185.897339,1395.351807 1185.896851,1391.429565 
	C1185.895142,1377.786621 1185.251709,1364.105347 1186.061646,1350.510742 
	C1186.972900,1335.219971 1175.012573,1323.452148 1159.700073,1335.191772 
	C1159.448120,1335.384888 1159.082153,1335.428955 1158.769409,1335.542480 
	C1158.875488,1335.103027 1158.981567,1334.663452 1159.087646,1334.223877 
	C1155.719482,1333.410522 1152.351318,1332.597046 1148.569214,1331.683716 
	C1148.239990,1334.342529 1147.941650,1335.639404 1147.939453,1336.936768 
	C1147.905518,1357.234863 1147.876709,1377.532959 1147.959717,1397.830688 
	C1147.967529,1399.730591 1148.737671,1401.627441 1150.900879,1403.965088 
M1286.690063,1386.715332 
	C1286.843384,1384.770142 1286.996704,1382.824951 1287.190063,1380.373047 
	C1284.016235,1380.373047 1281.243774,1380.373047 1278.709595,1380.373047 
	C1277.718262,1385.195557 1277.412842,1389.639160 1275.778564,1393.524048 
	C1274.795532,1395.861084 1271.738159,1398.818726 1269.620972,1398.812134 
	C1266.892700,1398.803833 1263.734009,1396.546509 1261.603882,1394.415039 
	C1260.193604,1393.003906 1259.823242,1390.129761 1259.743652,1387.883667 
	C1259.320557,1375.954834 1259.049683,1364.018555 1258.938599,1352.082764 
	C1258.914185,1349.465820 1259.581421,1346.796875 1260.235352,1344.229614 
	C1261.313599,1339.995605 1263.872192,1337.015015 1268.499756,1336.905151 
	C1273.237793,1336.792603 1275.711670,1339.732056 1276.637207,1344.107300 
	C1277.438354,1347.895752 1278.113403,1351.710938 1278.949463,1356.062134 
	C1281.973755,1355.624512 1284.382446,1355.276123 1287.492676,1354.826050 
	C1286.483032,1349.843872 1286.079590,1345.502808 1284.693359,1341.502319 
	C1281.808716,1333.177734 1274.443359,1329.173340 1265.793091,1330.638428 
	C1256.356567,1332.236938 1250.849609,1338.138062 1250.168091,1349.664551 
	C1249.443970,1361.911011 1249.867432,1374.233154 1250.035522,1386.518799 
	C1250.070801,1389.105347 1251.053833,1391.713257 1251.808960,1394.249146 
	C1253.587646,1400.222046 1257.823120,1403.609741 1263.718262,1405.088135 
	C1275.722900,1408.098999 1283.407959,1402.378052 1286.690063,1386.715332 
M1018.134521,1338.109497 
	C1020.390198,1343.782959 1022.645935,1349.456299 1025.161499,1355.783447 
	C1027.015137,1355.643066 1029.439453,1355.459351 1032.552124,1355.223511 
	C1031.950317,1351.128418 1031.763916,1347.809448 1030.943237,1344.655640 
	C1028.359985,1334.727905 1022.317505,1329.956055 1013.271790,1330.355469 
	C1004.160400,1330.757568 997.780396,1335.855713 996.051575,1345.493286 
	C993.326904,1360.682617 993.172668,1376.031006 996.113647,1391.222290 
	C997.947571,1400.695068 1004.436768,1405.657837 1013.705200,1405.727661 
	C1022.808533,1405.796265 1028.391846,1401.570679 1030.852295,1392.161255 
	C1031.828735,1388.427368 1031.932617,1384.465332 1032.486694,1380.199707 
	C1029.062500,1380.199707 1026.561768,1380.199707 1023.624146,1380.199707 
	C1023.057922,1383.819336 1022.543396,1387.080566 1022.038452,1390.343140 
	C1021.317993,1394.997437 1019.431091,1398.962646 1014.148743,1399.095703 
	C1009.059326,1399.223999 1006.366455,1395.841431 1005.490051,1391.066162 
	C1004.891663,1387.805664 1004.187927,1384.501465 1004.158447,1381.211060 
	C1004.062927,1370.553833 1003.788330,1359.863403 1004.479126,1349.244263 
	C1005.094177,1339.787842 1007.772461,1337.732056 1018.134521,1338.109497 
M1636.148804,1387.721924 
	C1636.019409,1375.760986 1635.786377,1363.799561 1635.834839,1351.839233 
	C1635.846680,1348.907104 1636.530640,1345.907227 1637.348633,1343.065918 
	C1638.475586,1339.151367 1641.316406,1336.891968 1645.449341,1336.951538 
	C1649.681396,1337.012329 1652.203735,1339.627563 1653.109741,1343.550659 
	C1653.989014,1347.358521 1654.429199,1351.267700 1655.095215,1355.333740 
	C1658.070190,1355.333740 1660.547974,1355.333740 1664.059448,1355.333740 
	C1663.464600,1351.482178 1663.192871,1348.261475 1662.445679,1345.155273 
	C1660.021240,1335.077637 1654.290771,1330.215698 1645.282715,1330.328857 
	C1636.094482,1330.444214 1629.674438,1335.062866 1627.751465,1344.872681 
	C1624.663574,1360.624756 1624.512451,1376.612671 1627.904419,1392.366821 
	C1629.823608,1401.280273 1636.257568,1405.728149 1645.241821,1405.749023 
	C1654.377075,1405.770264 1659.811157,1401.519653 1662.303955,1392.136597 
	C1663.066406,1389.266602 1663.422974,1386.278809 1663.807373,1383.324341 
	C1663.923096,1382.435059 1663.505249,1381.476440 1663.207275,1379.884644 
	C1660.330566,1380.021851 1657.549438,1380.154541 1654.707153,1380.290039 
	C1654.338257,1383.748901 1654.186157,1386.406372 1653.750610,1389.016602 
	C1652.640747,1395.667847 1650.123413,1399.031006 1645.912720,1399.108643 
	C1640.185547,1399.214233 1637.855835,1395.338257 1636.581909,1390.471313 
	C1636.497925,1390.150024 1636.442383,1389.821045 1636.148804,1387.721924 
M1550.273193,1316.124390 
	C1553.463745,1314.224976 1556.654175,1312.325562 1560.128296,1310.257324 
	C1559.630981,1305.764648 1559.630981,1305.764771 1557.251587,1305.268433 
	C1548.388428,1303.419800 1542.103271,1307.498047 1540.669189,1316.579468 
	C1539.903442,1321.429565 1540.036865,1326.421631 1539.773315,1331.188599 
	C1536.260864,1331.969360 1533.286621,1332.630371 1530.248413,1333.305664 
	C1531.335938,1340.094360 1537.702881,1335.557495 1540.722046,1340.845825 
	C1540.722046,1360.587646 1540.722046,1382.064941 1540.722046,1404.104980 
	C1544.233276,1403.787598 1546.703735,1403.564209 1550.030762,1403.263428 
	C1550.030762,1381.085938 1550.030762,1359.593750 1550.030762,1340.529785 
	C1553.540405,1335.355103 1560.297607,1340.733398 1560.831787,1332.760864 
	C1557.116943,1332.271729 1553.696167,1331.821411 1550.361206,1331.382202 
	C1550.119019,1329.750732 1549.857910,1328.782959 1549.853149,1327.813843 
	C1549.836548,1324.485229 1549.909546,1321.156372 1550.273193,1316.124390 
M1312.084839,1404.656616 
	C1321.351074,1404.783203 1321.351074,1404.783203 1322.322510,1398.445923 
	C1317.821655,1397.708984 1311.833252,1398.621948 1311.869141,1391.207886 
	C1311.954346,1373.635010 1311.896606,1356.061523 1311.896606,1338.602661 
	C1321.069458,1337.124878 1321.069458,1337.124878 1322.185913,1332.390259 
	C1318.950806,1332.126831 1315.766602,1331.867554 1311.695557,1331.536133 
	C1311.695557,1323.330078 1311.695557,1315.480835 1311.695557,1306.694702 
	C1308.003784,1306.921509 1305.317749,1307.086548 1302.070068,1307.286133 
	C1302.070068,1315.842407 1302.070068,1323.423218 1302.070068,1330.969604 
	C1298.530273,1331.821655 1295.554321,1332.537842 1292.577515,1333.254272 
	C1293.286621,1340.074463 1299.853516,1335.592773 1302.171631,1339.956787 
	C1302.171631,1342.825684 1302.169312,1346.463867 1302.172119,1350.102051 
	C1302.181885,1363.064941 1302.005981,1376.031982 1302.284302,1388.989136 
	C1302.420410,1395.324585 1302.953369,1401.888062 1312.084839,1404.656616 
M1578.350952,1399.438843 
	C1578.358398,1384.176392 1578.265991,1368.912842 1578.410522,1353.651733 
	C1578.498535,1344.359863 1580.524292,1342.071289 1589.411133,1340.083496 
	C1590.657593,1339.804688 1591.908447,1339.544556 1593.713257,1339.156250 
	C1593.434814,1336.456543 1593.190430,1334.088501 1592.807983,1330.380249 
	C1587.686646,1332.860229 1583.682983,1334.799072 1579.313721,1336.915039 
	C1577.838745,1332.012939 1574.740234,1330.547363 1569.928223,1333.422485 
	C1569.928223,1356.555176 1569.928223,1379.729370 1569.928223,1403.911865 
	C1573.000244,1402.715576 1576.622803,1406.415527 1578.350952,1399.438843 
M1602.420288,1345.336670 
	C1602.420288,1364.510132 1602.420288,1383.683594 1602.420288,1403.248535 
	C1606.043213,1403.248535 1608.703247,1403.248535 1611.280029,1403.248535 
	C1612.979248,1385.352295 1612.362793,1339.423706 1610.262329,1331.949829 
	C1607.900391,1332.245239 1605.457153,1332.550903 1602.420288,1332.930786 
	C1602.420288,1336.881348 1602.420288,1340.161255 1602.420288,1345.336670 
M1342.830444,1368.998291 
	C1342.830444,1356.880493 1342.830444,1344.762817 1342.830444,1332.537109 
	C1339.224121,1332.537109 1337.025635,1332.537109 1334.357666,1332.537109 
	C1334.357666,1356.340576 1334.357666,1379.731323 1334.357666,1403.731079 
	C1337.291626,1403.590210 1339.716309,1403.473755 1342.830322,1403.324219 
	C1342.830322,1392.136108 1342.830322,1381.565308 1342.830444,1368.998291 
M1605.691650,1305.113403 
	C1602.334595,1308.639404 1601.377808,1313.758789 1603.983765,1315.583984 
	C1606.267944,1315.583984 1608.770630,1315.583984 1611.913452,1315.583984 
	C1610.823975,1311.420044 1615.453125,1305.628052 1605.691650,1305.113403 
M1334.258423,1306.502075 
	C1334.258423,1309.387573 1334.258423,1312.273071 1334.258423,1315.381958 
	C1337.256470,1315.381958 1339.688354,1315.381958 1342.900269,1315.381958 
	C1342.696533,1311.656372 1342.528076,1308.575317 1342.358887,1305.483032 
	C1339.354004,1305.483032 1337.390991,1305.483032 1334.258423,1306.502075 
z"/>
<path fill="#FC8417" opacity="1.000000" stroke="none" 
	d="
M1336.056396,1142.000000 
	C1336.056396,1159.566772 1336.056396,1176.133545 1336.056396,1193.284180 
	C1317.122559,1193.284180 1299.302368,1193.284180 1280.367310,1193.284180 
	C1280.222412,1189.270142 1279.964233,1185.407471 1279.961914,1181.544434 
	C1279.932129,1133.571777 1279.965698,1085.598999 1279.892578,1037.626465 
	C1279.885986,1033.326904 1279.742676,1028.915649 1278.791992,1024.755371 
	C1277.312744,1018.281982 1273.846680,1015.128784 1267.348755,1016.241211 
	C1260.667236,1017.385132 1254.131592,1020.249146 1248.022217,1023.331726 
	C1246.224365,1024.238892 1245.387573,1028.430908 1245.320190,1031.147461 
	C1245.030884,1042.800415 1245.190674,1054.464478 1245.190430,1066.124512 
	C1245.189331,1104.769165 1245.189941,1143.413818 1245.189941,1182.058472 
	C1245.189941,1185.643188 1245.189819,1189.227905 1245.189819,1193.336914 
	C1226.126099,1193.336914 1208.291870,1193.336914 1189.910156,1193.336914 
	C1189.910156,1093.248779 1189.910156,993.462341 1189.910156,893.138611 
	C1208.282349,893.138611 1226.070923,893.138611 1244.996826,893.138611 
	C1244.996826,927.490234 1244.996826,961.292542 1244.996826,997.257629 
	C1249.297363,994.190063 1251.886597,992.437256 1254.375732,990.552063 
	C1267.240234,980.808167 1281.504517,975.370422 1297.856689,975.319580 
	C1314.217773,975.268738 1325.515503,983.051025 1330.990112,997.810913 
	C1334.156128,1006.346863 1335.707642,1015.928772 1335.829712,1025.068726 
	C1336.346069,1063.706665 1336.053345,1102.355225 1336.056396,1142.000000 
z"/>
<path fill="#FBFBFC" opacity="1.000000" stroke="none" 
	d="
M1463.510132,1193.480469 
	C1458.495605,1176.096191 1454.117554,1159.026367 1450.127441,1141.866455 
	C1436.032349,1081.247681 1422.076050,1020.596741 1408.033325,959.965759 
	C1407.541504,957.842285 1406.690674,955.801941 1404.416992,953.936462 
	C1404.416992,1033.550415 1404.416992,1113.164307 1404.416992,1193.331787 
	C1396.019287,1193.331787 1388.555054,1193.331787 1380.511475,1193.331787 
	C1380.511475,1089.517822 1380.511475,986.078735 1380.511475,882.141968 
	C1391.776733,882.141968 1402.633423,882.141968 1414.098267,882.141968 
	C1433.703979,969.809570 1453.278809,1057.338867 1472.853516,1144.868286 
	C1473.623779,1144.895874 1474.393921,1144.923462 1475.164062,1144.951172 
	C1495.120239,1057.461182 1515.076538,969.971130 1535.130737,882.051514 
	C1545.511597,882.051514 1556.111572,882.051514 1566.720581,882.051514 
	C1568.700562,889.319092 1569.600952,1169.465088 1567.652954,1193.148438 
	C1560.271362,1193.148438 1552.808960,1193.148438 1544.426270,1193.148438 
	C1544.426270,1113.481079 1544.426270,1033.661377 1544.426270,953.841614 
	C1543.754395,953.712708 1543.082642,953.583801 1542.410767,953.454895 
	C1541.579956,956.059570 1540.561035,958.620728 1539.945679,961.275391 
	C1522.659302,1035.847290 1505.417603,1110.429688 1488.148071,1185.005493 
	C1487.484253,1187.872681 1486.621338,1190.693604 1485.792236,1193.753784 
	C1478.282349,1193.753784 1471.303467,1193.753784 1463.510132,1193.480469 
z"/>
<path fill="#FD8417" opacity="1.000000" stroke="none" 
	d="
M721.030029,1152.436646 
	C722.477600,1154.170776 723.498535,1155.661377 723.515808,1157.163452 
	C723.649658,1168.800781 723.589661,1180.440430 723.589661,1191.881104 
	C716.242249,1194.308472 606.144409,1194.967896 592.242432,1192.746338 
	C592.242432,1093.345459 592.242432,993.838440 592.242432,894.346130 
	C599.062561,892.171753 709.344971,891.559814 722.007568,893.712891 
	C722.007568,907.110474 722.007568,920.610596 722.007568,935.320923 
	C699.112305,935.320923 676.633423,935.320923 653.479065,935.320923 
	C653.479065,962.019714 653.479065,987.521484 653.479065,1014.480713 
	C670.553345,1015.569580 687.781250,1014.411865 705.746460,1015.158936 
	C705.746460,1029.232300 705.746460,1042.994019 705.746460,1057.872070 
	C688.496277,1057.872070 671.325500,1057.872070 653.479675,1057.872070 
	C653.479675,1089.456055 653.479675,1119.947632 653.479675,1151.866333 
	C675.778625,1151.977417 697.958557,1152.087891 721.030029,1152.436646 
z"/>
<path fill="#FCFCFD" opacity="1.000000" stroke="none" 
	d="
M1459.527222,599.453674 
	C1465.793335,600.294861 1466.933350,596.624512 1468.544312,592.664490 
	C1476.461304,573.202881 1490.472900,560.000000 1510.995605,555.178589 
	C1535.424561,549.439636 1556.862183,555.873047 1573.044434,575.313232 
	C1589.140015,594.649292 1592.481079,616.831543 1582.017578,639.843018 
	C1571.616699,662.716797 1553.156250,675.203979 1527.846924,676.105713 
	C1501.531982,677.043274 1479.056641,662.105530 1468.874756,637.838013 
	C1467.857666,635.413879 1466.872681,632.976257 1465.823364,630.424805 
	C1390.541382,630.424805 1315.614380,630.424805 1239.775879,630.424805 
	C1233.339844,649.601868 1221.484497,664.535645 1201.828735,672.182068 
	C1188.615967,677.321960 1175.143677,677.673706 1161.652710,673.663818 
	C1134.801758,665.682861 1116.735474,639.618591 1118.140259,611.267395 
	C1119.499512,583.837097 1140.520386,559.529968 1167.406250,554.299622 
	C1198.687866,548.214172 1223.121338,563.071411 1240.423706,599.455811 
	C1312.803711,599.455811 1385.694946,599.455811 1459.527222,599.453674 
M1543.237183,589.406433 
	C1540.874634,588.215515 1538.606079,586.761658 1536.134033,585.876465 
	C1520.263062,580.192993 1503.071777,588.334656 1497.200806,604.202698 
	C1491.418335,619.830627 1499.541504,637.645813 1515.110718,643.481873 
	C1531.237427,649.527039 1549.328247,641.402832 1554.757446,625.022034 
	C1559.290283,611.346130 1555.762939,599.512085 1543.237183,589.406433 
M1187.048828,644.436096 
	C1189.812012,643.342224 1192.770996,642.582825 1195.305664,641.098694 
	C1209.113525,633.013489 1214.284424,615.451172 1207.229004,601.187134 
	C1199.948242,586.467896 1182.425659,580.049316 1167.415527,586.603638 
	C1153.511597,592.674927 1146.199585,608.025208 1150.105103,622.943726 
	C1154.062622,638.061584 1168.431396,646.942505 1187.048828,644.436096 
z"/>
<path fill="#FB8318" opacity="1.000000" stroke="none" 
	d="
M785.993591,981.908691 
	C803.885559,974.542908 821.847839,973.857849 839.786987,976.619141 
	C865.335449,980.551636 882.061340,998.491821 885.940857,1024.934570 
	C886.904175,1031.500610 887.354919,1038.195801 887.388428,1044.835083 
	C887.539490,1074.819946 887.194885,1104.809082 887.562012,1134.790283 
	C887.761597,1151.086304 889.023132,1167.369507 889.817078,1183.657959 
	C889.960999,1186.610840 890.159790,1189.561035 890.374573,1193.216553 
	C873.784973,1193.216553 857.658997,1193.216553 840.625488,1193.216553 
	C839.173828,1184.957275 837.711182,1176.635742 835.913513,1166.407837 
	C833.506897,1170.269897 832.015503,1172.348511 830.842102,1174.593384 
	C813.362732,1208.032227 769.667358,1202.610840 753.850342,1175.285278 
	C741.442505,1153.849121 742.594177,1131.967041 753.873413,1110.467773 
	C759.232849,1100.252319 767.559570,1092.547852 777.028931,1086.030029 
	C790.880981,1076.495239 806.404602,1070.467407 821.898254,1064.358398 
	C825.262329,1063.032104 828.647217,1061.758545 831.931702,1060.495483 
	C831.931702,1049.563232 832.541687,1039.265503 831.735107,1029.080078 
	C831.111206,1021.200867 826.570312,1017.904358 819.144653,1017.618042 
	C810.924133,1017.301208 806.373230,1020.247864 804.734924,1028.306152 
	C803.219666,1035.759033 802.732971,1043.421143 801.684692,1051.865479 
	C784.429138,1051.113647 767.543701,1050.378052 750.744507,1049.646118 
	C745.703918,1024.627319 761.036316,994.910095 785.993591,981.908691 
M816.350586,1157.540527 
	C830.170593,1152.630371 832.816956,1148.915771 832.827820,1134.380737 
	C832.834534,1125.429077 832.829102,1116.477417 832.829163,1107.525757 
	C832.829163,1101.328979 832.829224,1095.132324 832.829224,1087.820068 
	C823.375000,1091.571533 816.706238,1096.823120 810.458252,1102.606812 
	C799.035217,1113.180908 795.408203,1126.437500 797.846619,1141.515015 
	C799.516846,1151.842163 803.935913,1155.907715 816.350586,1157.540527 
z"/>
<path fill="#FB8318" opacity="1.000000" stroke="none" 
	d="
M1449.224854,724.725952 
	C1428.914062,711.179016 1406.118164,683.200745 1400.324829,658.653076 
	C1410.310791,658.059326 1420.118774,658.118652 1429.865479,658.718506 
	C1431.758423,658.835022 1433.712646,661.845642 1435.207520,663.843811 
	C1440.580933,671.026611 1444.937500,679.169800 1451.169434,685.476746 
	C1481.279297,715.949463 1517.541260,726.101562 1558.240601,712.519348 
	C1599.214478,698.845459 1622.973633,669.106262 1628.378418,626.080688 
	C1634.413452,578.038330 1605.074341,532.522095 1559.105835,516.879211 
	C1513.633301,501.405090 1463.467529,519.576660 1438.148438,560.710205 
	C1436.752075,562.978760 1435.719727,565.513611 1434.078369,567.574219 
	C1432.953735,568.985962 1431.092529,570.672241 1429.514526,570.720337 
	C1419.973267,571.011047 1410.418823,570.865051 1399.290405,570.865051 
	C1401.304688,565.849670 1402.589478,562.199951 1404.202637,558.701721 
	C1429.426880,504.002136 1486.269043,473.517792 1546.932007,482.109192 
	C1603.196289,490.077698 1649.192139,536.186707 1658.482666,593.934265 
	C1672.128906,678.757812 1602.612305,754.584900 1516.879395,748.576782 
	C1492.317749,746.855530 1470.065552,738.966248 1449.224854,724.725952 
z"/>
<path fill="#FB8318" opacity="1.000000" stroke="none" 
	d="
M1054.589844,663.395874 
	C1026.622314,588.393982 1067.022461,510.766449 1137.490601,487.354614 
	C1206.359497,464.473999 1282.598755,501.513611 1305.390991,568.987549 
	C1301.313354,570.550842 1278.502197,572.399170 1275.305176,570.600525 
	C1272.952393,569.276855 1271.127319,566.589722 1269.679810,564.147095 
	C1253.295532,536.499756 1229.560547,519.249146 1197.926514,513.085876 
	C1142.283447,502.244965 1086.714844,542.157471 1077.659302,598.152466 
	C1067.658813,659.989502 1116.355469,721.133850 1184.660889,717.812744 
	C1221.210938,716.035583 1249.389526,698.573547 1268.141113,667.190369 
	C1272.448853,659.980835 1277.030273,657.652100 1284.734619,658.246399 
	C1291.334229,658.755493 1298.004272,658.351807 1306.361572,658.351807 
	C1304.550781,663.040894 1303.451172,666.739563 1301.758789,670.143433 
	C1277.017822,719.904236 1237.091187,747.902527 1181.339600,748.524475 
	C1125.225220,749.150513 1084.357910,722.044312 1058.475952,672.351074 
	C1057.095093,669.699707 1056.072510,666.861755 1054.589844,663.395874 
z"/>
<path fill="#FB8318" opacity="1.000000" stroke="none" 
	d="
M1068.110718,918.640015 
	C1069.433105,916.478333 1070.701294,914.213318 1072.000122,914.195557 
	C1089.268555,913.958984 1106.541504,914.037537 1124.976074,914.037537 
	C1124.976074,935.557678 1124.976074,956.385864 1124.976074,978.671509 
	C1135.858154,978.671509 1145.616943,978.671509 1155.640381,978.671509 
	C1155.640381,991.668030 1155.640381,1003.179382 1155.640381,1015.779663 
	C1145.631592,1015.779663 1136.136963,1015.779663 1125.907959,1015.779663 
	C1125.628052,1020.007812 1125.235229,1023.215149 1125.231079,1026.422974 
	C1125.187134,1060.390869 1125.204712,1094.358765 1125.206299,1128.326660 
	C1125.206299,1129.325684 1125.194336,1130.325439 1125.225586,1131.323608 
	C1125.679199,1145.807861 1131.107422,1151.017212 1145.645264,1150.750610 
	C1149.927002,1150.672241 1154.203125,1150.286621 1159.267578,1149.996826 
	C1159.267578,1164.620850 1159.267578,1178.693359 1159.267578,1193.225342 
	C1140.464355,1196.207153 1121.994995,1197.767822 1103.506592,1193.855347 
	C1085.400269,1190.023560 1073.956543,1178.990601 1070.496094,1160.693115 
	C1068.959473,1152.568481 1068.224609,1144.181763 1068.167480,1135.906860 
	C1067.919067,1099.942505 1068.054443,1063.975586 1068.050293,1028.009521 
	C1068.049927,1024.419800 1068.050293,1020.830200 1068.050293,1016.263245 
	C1060.972290,1016.263245 1054.789429,1016.263245 1047.304688,1016.263245 
	C1046.432251,1003.614807 1046.677734,991.906982 1047.173584,979.359741 
	C1054.071045,979.000183 1060.272583,978.676880 1067.722778,978.288513 
	C1068.399658,968.287109 1067.948730,958.402893 1068.033691,948.553894 
	C1068.117065,938.896973 1068.063965,929.238892 1068.110718,918.640015 
z"/>
<path fill="#FC8417" opacity="1.000000" stroke="none" 
	d="
M980.349609,1138.000000 
	C980.349670,1156.906494 980.349670,1174.812988 980.349670,1193.296143 
	C961.436951,1193.296143 943.605164,1193.296143 925.824768,1193.296143 
	C923.824463,1185.759277 922.993713,1000.848083 924.945557,979.235168 
	C942.836548,978.322754 960.909424,979.043274 980.331970,978.810425 
	C980.331970,989.433899 980.331970,999.134827 980.331970,1008.835754 
	C980.971252,1008.967407 981.610535,1009.099121 982.249817,1009.230835 
	C986.148315,1004.006897 989.911255,998.674866 993.975647,993.583313 
	C1000.818848,985.010620 1009.154846,978.573181 1020.344910,976.878235 
	C1025.211060,976.140991 1030.217773,975.163513 1035.237061,978.253662 
	C1035.237061,996.107910 1035.237061,1013.991699 1035.237061,1032.828979 
	C1032.089111,1032.183472 1029.312500,1031.697266 1026.577148,1031.039429 
	C1009.167725,1026.852661 992.794617,1032.870117 982.893433,1047.753540 
	C981.053833,1050.518921 980.482788,1054.566406 980.457275,1058.030518 
	C980.263000,1084.352539 980.350098,1110.676636 980.349609,1138.000000 
z"/>
<path fill="#FAFAFC" opacity="1.000000" stroke="none" 
	d="
M1652.985107,1081.080566 
	C1665.566162,1074.853882 1677.474976,1068.903198 1689.523438,1063.249512 
	C1693.143188,1061.551025 1695.844727,1059.834839 1695.350952,1055.259399 
	C1693.782104,1040.716675 1692.384644,1026.155151 1690.766235,1011.618042 
	C1690.513550,1009.347595 1689.593384,1007.111938 1688.741943,1004.954895 
	C1685.494141,996.727539 1680.609985,990.487427 1670.802368,989.966980 
	C1660.488525,989.419678 1652.207397,993.158142 1647.702148,1002.442688 
	C1644.854004,1008.312561 1643.618652,1015.007141 1642.014160,1021.420471 
	C1641.218018,1024.602661 1641.220825,1027.984741 1640.805786,1031.793945 
	C1631.546143,1031.793945 1622.679321,1031.793945 1612.667847,1031.793945 
	C1614.673950,1009.954529 1620.665283,990.123596 1640.651611,978.655334 
	C1660.431641,967.305481 1681.146851,968.631958 1700.275513,980.969910 
	C1705.854492,984.568359 1710.900269,990.574280 1713.633789,996.630615 
	C1717.672485,1005.578918 1720.564819,1015.407898 1721.854858,1025.138916 
	C1723.378296,1036.628662 1722.785889,1048.412354 1722.916504,1060.070801 
	C1723.330933,1097.053223 1723.568726,1134.037842 1724.088379,1171.018555 
	C1724.190063,1178.243774 1725.249634,1185.455444 1725.921631,1193.307861 
	C1717.356323,1193.307861 1709.522583,1193.307861 1700.921509,1193.307861 
	C1699.763794,1185.924316 1698.604492,1178.530396 1697.200684,1169.577271 
	C1694.422729,1172.871460 1692.390137,1175.230835 1690.412598,1177.635620 
	C1681.889648,1187.999512 1671.391724,1195.518433 1658.080933,1197.918335 
	C1637.146118,1201.692871 1615.302124,1187.569336 1610.500732,1165.997803 
	C1604.480103,1138.948608 1608.458984,1114.136108 1632.004639,1095.851318 
	C1638.560669,1090.760010 1645.566772,1086.248169 1652.985107,1081.080566 
M1695.407227,1105.015137 
	C1695.342041,1094.941772 1695.276855,1084.868286 1695.207153,1074.103149 
	C1680.753540,1082.061890 1659.120117,1098.807861 1650.220825,1109.128662 
	C1637.714111,1123.632690 1632.572876,1140.247437 1637.745972,1159.086060 
	C1641.522339,1172.838623 1652.735229,1178.630493 1666.276978,1174.551758 
	C1676.185181,1171.567383 1683.797119,1165.397339 1690.197876,1157.447632 
	C1693.892822,1152.858398 1695.695068,1147.939575 1695.510254,1141.897095 
	C1695.154785,1130.277466 1695.407104,1118.639160 1695.407227,1105.015137 
z"/>
<path fill="#F9F9FB" opacity="1.000000" stroke="none" 
	d="
M1972.141113,1035.496338 
	C1973.052002,1050.659058 1974.019287,1064.921143 1972.044556,1079.891113 
	C1943.502686,1079.891113 1915.295288,1079.891113 1886.490845,1079.891113 
	C1886.218994,1083.116211 1885.752563,1085.665894 1885.830566,1088.198608 
	C1886.443848,1108.151733 1886.999390,1128.109497 1887.968506,1148.046631 
	C1888.190796,1152.615601 1889.531128,1157.257935 1891.079224,1161.609619 
	C1894.967407,1172.538818 1902.117798,1179.572754 1914.469360,1180.097656 
	C1926.594238,1180.612671 1935.471313,1175.821777 1940.448853,1163.899902 
	C1943.345703,1156.961548 1944.500610,1149.240723 1945.956421,1141.777710 
	C1946.776123,1137.575195 1946.615112,1133.181519 1946.936768,1128.248535 
	C1955.165039,1126.233643 1963.274780,1127.186035 1972.155029,1127.714111 
	C1970.840088,1145.924683 1968.031006,1163.152466 1958.455322,1178.590576 
	C1951.722290,1189.445679 1941.588745,1196.109863 1929.243530,1197.517090 
	C1919.483032,1198.629639 1909.289551,1197.920410 1899.515381,1196.479370 
	C1884.047852,1194.199341 1873.640625,1184.525879 1868.212036,1170.155518 
	C1865.061279,1161.815186 1862.315063,1153.029175 1861.303955,1144.223633 
	C1856.579346,1103.076172 1855.656250,1061.846680 1862.198730,1020.784973 
	C1863.437622,1013.009033 1866.204712,1005.293396 1869.404907,998.052917 
	C1875.290527,984.736572 1885.769897,975.878601 1900.140625,973.571045 
	C1910.191040,971.957275 1920.791626,971.460999 1930.852539,972.753113 
	C1946.477905,974.759766 1957.447754,984.261475 1963.792603,998.772583 
	C1968.782593,1010.185242 1971.034790,1022.257019 1972.141113,1035.496338 
M1945.929321,1060.571655 
	C1945.845459,1051.261719 1946.421265,1041.885376 1945.494995,1032.660034 
	C1944.541138,1023.161377 1942.514648,1013.711975 1940.199585,1004.430115 
	C1938.800781,998.822083 1934.864014,994.584717 1929.399658,992.028320 
	C1914.378662,985.001099 1894.325195,993.851685 1889.949463,1009.876831 
	C1888.210327,1016.246033 1887.309692,1022.909485 1886.676880,1029.501343 
	C1885.513062,1041.624756 1885.927368,1053.768188 1886.002930,1066.236816 
	C1905.077515,1066.236816 1922.692017,1066.247192 1940.306641,1066.225830 
	C1942.952148,1066.222656 1945.914673,1066.545044 1945.929321,1060.571655 
z"/>
<path fill="#F9F9FB" opacity="1.000000" stroke="none" 
	d="
M2036.043457,1041.413818 
	C2043.641968,1049.415283 2050.627686,1057.007080 2058.087158,1064.101074 
	C2071.589355,1076.941406 2085.987061,1088.895508 2098.871582,1102.313843 
	C2112.354004,1116.354980 2118.689697,1133.744263 2116.583984,1153.498779 
	C2113.945557,1178.252686 2096.413086,1195.237793 2071.636230,1198.123535 
	C2045.333496,1201.187012 2025.515015,1191.387207 2011.691406,1169.041382 
	C2006.091064,1159.988403 2001.553223,1150.496460 1999.760498,1139.167725 
	C2006.392090,1136.920044 2012.600586,1134.815796 2019.507446,1132.474854 
	C2020.701294,1134.954346 2021.666016,1137.314697 2022.923828,1139.506958 
	C2028.039307,1148.423340 2032.493774,1157.849731 2038.609619,1166.027954 
	C2046.042725,1175.967529 2056.500000,1180.529053 2069.375000,1178.339233 
	C2078.382324,1176.807007 2084.640381,1172.012451 2088.153076,1163.729248 
	C2092.677490,1153.060303 2093.359619,1142.033813 2087.260742,1132.007080 
	C2081.941895,1123.262573 2075.742676,1114.835083 2068.740234,1107.388184 
	C2060.097900,1098.197021 2050.067383,1090.327271 2040.923218,1081.586670 
	C2031.786377,1072.852905 2022.502197,1064.188843 2014.179932,1054.706421 
	C2000.868652,1039.539673 1999.017944,1021.765686 2005.513306,1003.190430 
	C2012.345337,983.652222 2027.824707,974.884094 2047.268555,972.348022 
	C2070.732666,969.287598 2089.132812,977.482117 2101.043945,998.449524 
	C2103.826904,1003.348206 2106.198730,1008.509399 2108.390869,1013.705383 
	C2110.047607,1017.631714 2111.117188,1021.805786 2112.780518,1026.885254 
	C2104.633301,1029.455444 2097.172852,1031.809082 2088.962646,1034.399170 
	C2087.864502,1030.471313 2086.894043,1027.046753 2085.949707,1023.614990 
	C2083.533203,1014.830688 2079.742920,1006.837769 2073.451904,1000.046875 
	C2066.082275,992.091553 2057.112305,989.791931 2047.092163,992.843750 
	C2037.283081,995.831421 2031.875122,1003.323547 2030.057251,1013.192383 
	C2028.242798,1023.042969 2029.579590,1032.435913 2036.043457,1041.413818 
z"/>
<path fill="#FCFCFD" opacity="1.000000" stroke="none" 
	d="
M1771.719482,1071.999756 
	C1771.719482,1045.063110 1771.719482,1019.126465 1771.719482,992.207581 
	C1761.906616,992.207581 1752.741089,992.207581 1742.810059,992.207581 
	C1742.810059,986.790771 1742.810059,982.322571 1742.810059,976.548828 
	C1751.873657,976.548828 1761.296997,976.548828 1771.500244,976.548828 
	C1771.500244,950.408264 1771.500244,925.532349 1771.500244,900.023743 
	C1780.766479,900.023743 1789.225342,900.023743 1798.544434,900.023743 
	C1798.544434,924.982666 1798.544434,949.841370 1798.544434,975.907593 
	C1810.431519,975.907593 1821.550781,975.907593 1833.236328,975.907593 
	C1833.236328,981.579773 1833.236328,986.054382 1833.236328,991.744507 
	C1821.974121,991.744507 1810.836548,991.744507 1798.922852,991.744507 
	C1798.922852,996.207520 1798.922852,999.480286 1798.922852,1002.753052 
	C1798.923706,1049.407471 1798.873535,1096.062134 1798.983154,1142.716309 
	C1798.998657,1149.361816 1799.340942,1156.073242 1800.331055,1162.633667 
	C1801.706177,1171.745972 1806.683594,1175.827881 1815.930420,1176.346802 
	C1818.915771,1176.514282 1821.923462,1176.265747 1824.921143,1176.237793 
	C1827.490112,1176.213745 1830.059204,1176.232788 1833.096680,1176.232788 
	C1833.096680,1182.301392 1833.096680,1187.824219 1833.096680,1193.675903 
	C1821.147705,1197.274048 1809.255371,1198.339600 1797.382080,1195.532715 
	C1786.667480,1192.999878 1778.534180,1186.614502 1775.871582,1175.485596 
	C1773.874390,1167.138062 1772.171021,1158.511841 1771.995239,1149.975708 
	C1771.467651,1124.326050 1771.751953,1098.659668 1771.719482,1071.999756 
z"/>
<path fill="#EDECF2" opacity="1.000000" stroke="none" 
	d="
M1411.234863,1372.975220 
	C1406.968384,1363.407227 1406.200684,1354.259521 1409.424316,1345.108032 
	C1415.091675,1329.020020 1430.106201,1325.686890 1442.191406,1337.631714 
	C1442.891357,1338.323608 1443.620483,1338.985840 1444.702148,1340.007690 
	C1447.841309,1337.054443 1450.967773,1334.113159 1454.292480,1330.985352 
	C1459.540527,1340.005127 1450.654663,1340.756592 1448.137451,1344.478027 
	C1450.487427,1375.657593 1445.473755,1382.356445 1419.407959,1382.382080 
	C1418.263794,1385.070923 1417.010864,1388.015625 1415.129028,1392.438232 
	C1420.338257,1393.718506 1424.715332,1394.653809 1429.007812,1395.884888 
	C1434.409912,1397.434082 1440.097900,1398.532227 1445.029541,1401.059937 
	C1454.610229,1405.970459 1454.939209,1418.311157 1445.457031,1423.428467 
	C1433.641235,1429.805664 1420.999878,1428.836060 1408.759888,1424.408203 
	C1403.506836,1422.507690 1402.074097,1417.609375 1405.042114,1411.926880 
	C1407.258545,1407.683105 1410.856689,1404.161255 1414.172852,1399.888428 
	C1412.248413,1398.636841 1410.126953,1397.257080 1407.910889,1395.815918 
	C1406.922119,1388.963745 1412.465576,1384.974854 1414.890503,1379.071289 
	C1413.924683,1377.470947 1412.774414,1375.565186 1411.234863,1372.975220 
M1438.588257,1366.862793 
	C1440.708862,1359.947510 1440.495361,1353.081543 1438.156128,1346.259277 
	C1436.502075,1341.435059 1433.574463,1338.060181 1428.082031,1338.155029 
	C1422.473389,1338.251709 1419.376343,1342.149170 1418.528442,1346.850830 
	C1417.485596,1352.632935 1417.432495,1358.692261 1417.742432,1364.590210 
	C1418.023193,1369.932007 1420.804077,1374.320923 1426.445190,1375.467529 
	C1432.197632,1376.636963 1435.975464,1373.663086 1438.588257,1366.862793 
M1441.530762,1407.284424 
	C1437.562134,1405.757446 1433.697510,1403.816284 1429.603516,1402.788574 
	C1420.758423,1400.568359 1416.910889,1402.803345 1413.556641,1411.343506 
	C1411.595581,1416.336548 1412.755371,1419.373413 1418.032715,1419.909912 
	C1424.244263,1420.541382 1430.668579,1420.533203 1436.841675,1419.668091 
	C1442.696533,1418.847656 1443.620972,1416.127319 1441.530762,1407.284424 
z"/>
<path fill="#E8E8EF" opacity="1.000000" stroke="none" 
	d="
M1386.162354,1375.988403 
	C1386.145142,1365.681519 1386.304443,1356.363281 1386.049683,1347.056396 
	C1385.874023,1340.642334 1383.751465,1338.115845 1379.276001,1337.776245 
	C1374.243774,1337.394409 1368.248535,1341.639893 1367.431519,1346.447754 
	C1367.045654,1348.717651 1367.230835,1351.091431 1367.228394,1353.418213 
	C1367.214355,1366.723389 1367.221436,1380.028687 1367.221313,1393.333862 
	C1367.221313,1396.597046 1367.221313,1399.860229 1367.221313,1403.557739 
	C1363.709839,1403.557739 1361.189209,1403.557739 1358.241577,1403.557739 
	C1358.241577,1379.901489 1358.241577,1356.699951 1358.234497,1333.497070 
	C1364.047729,1332.036499 1364.047729,1332.036499 1368.598389,1335.559448 
	C1370.704834,1334.405396 1372.858276,1332.950317 1375.212402,1331.984375 
	C1384.572998,1328.143311 1392.448486,1332.190674 1395.090088,1342.072266 
	C1395.346558,1343.031372 1395.654907,1344.021240 1395.656616,1344.997192 
	C1395.690063,1364.234619 1395.681641,1383.472046 1395.681641,1403.388916 
	C1392.616333,1403.614746 1390.130981,1403.797729 1386.162476,1404.090088 
	C1386.162476,1394.696899 1386.162476,1385.839355 1386.162354,1375.988403 
z"/>
<path fill="#E8E8EF" opacity="1.000000" stroke="none" 
	d="
M1116.920410,1330.782715 
	C1128.284912,1331.483643 1133.379517,1335.605591 1133.643311,1345.660156 
	C1134.140015,1364.600342 1133.786499,1383.562866 1133.786499,1403.402710 
	C1130.584473,1403.545166 1127.889404,1403.665161 1124.189453,1403.829834 
	C1124.189453,1396.039429 1124.194458,1389.106934 1124.188232,1382.174561 
	C1124.177734,1370.511108 1124.314697,1358.844727 1124.085449,1347.185547 
	C1123.956787,1340.644165 1121.915771,1338.177734 1117.435059,1337.791382 
	C1112.376343,1337.355103 1106.332642,1341.573242 1105.526489,1346.383057 
	C1105.145142,1348.658203 1105.339844,1351.036255 1105.337646,1353.367676 
	C1105.324951,1366.697388 1105.331543,1380.027222 1105.331421,1393.356934 
	C1105.331421,1396.622559 1105.331299,1399.888062 1105.331299,1403.552002 
	C1101.776123,1403.552002 1099.246704,1403.552002 1096.286621,1403.552002 
	C1096.286621,1379.857178 1096.286621,1356.624268 1096.286621,1331.917358 
	C1099.948364,1332.649780 1103.328735,1333.326050 1106.708984,1334.002197 
	C1106.615723,1334.469360 1106.522339,1334.936523 1106.429077,1335.403687 
	C1109.683350,1333.933228 1112.937622,1332.462769 1116.920410,1330.782715 
z"/>
<path fill="#EDEDF3" opacity="1.000000" stroke="none" 
	d="
M1514.696289,1332.888550 
	C1522.225220,1338.043335 1523.282471,1345.409668 1523.411255,1352.767212 
	C1523.701904,1369.377563 1523.502563,1385.996704 1523.502563,1403.176758 
	C1519.101074,1405.105713 1515.717041,1404.395630 1514.530151,1398.067383 
	C1511.414673,1400.255127 1509.196289,1402.150513 1506.688232,1403.512207 
	C1498.309692,1408.061401 1488.174927,1404.000244 1486.184814,1394.816406 
	C1484.268433,1385.972412 1485.099243,1377.250122 1493.323364,1371.486084 
	C1499.549194,1367.122437 1506.292603,1363.497314 1514.093018,1358.761963 
	C1513.539795,1354.230713 1513.014771,1348.722412 1512.149170,1343.267944 
	C1511.574707,1339.648315 1509.213501,1336.505615 1505.561157,1337.159424 
	C1502.798096,1337.654297 1499.968628,1340.166626 1498.099731,1342.520386 
	C1496.573242,1344.442871 1496.423096,1347.458374 1495.585815,1350.245361 
	C1492.988403,1350.245361 1490.454834,1350.245361 1488.106812,1350.245361 
	C1487.702026,1349.185547 1487.189453,1348.537476 1487.289795,1348.005127 
	C1490.153809,1332.824463 1498.752808,1327.853027 1514.696289,1332.888550 
M1494.687988,1385.764404 
	C1495.184937,1388.632812 1494.869873,1392.102051 1496.417480,1394.192871 
	C1497.835449,1396.108643 1501.309937,1397.525391 1503.797363,1397.410767 
	C1508.738403,1397.182983 1513.686768,1391.818726 1513.921509,1386.887695 
	C1514.243896,1380.116333 1514.002197,1373.318115 1514.002197,1364.803589 
	C1505.038940,1370.438232 1497.691040,1374.971680 1494.687988,1385.764404 
z"/>
<path fill="#EAE9F0" opacity="1.000000" stroke="none" 
	d="
M1044.304688,1350.605103 
	C1044.921143,1347.502808 1045.293823,1345.187622 1046.027466,1342.992920 
	C1048.834229,1334.595703 1054.660767,1330.300293 1062.997192,1330.314453 
	C1071.340576,1330.328613 1077.526001,1334.622192 1079.835205,1343.069214 
	C1081.217896,1348.126099 1081.915894,1353.523804 1081.924561,1358.770142 
	C1081.941406,1369.030273 1082.062500,1379.403198 1080.654907,1389.522827 
	C1079.052490,1401.042847 1072.894287,1405.828979 1062.792358,1405.741821 
	C1052.739502,1405.655029 1046.510254,1400.862915 1045.213135,1389.187256 
	C1043.828613,1376.724609 1044.469849,1364.036987 1044.304688,1350.605103 
M1053.352051,1359.230713 
	C1053.540405,1368.186035 1053.462280,1377.157349 1053.992310,1386.092407 
	C1054.522827,1395.037964 1057.890137,1399.409302 1063.202026,1399.232666 
	C1068.406372,1399.059692 1071.258301,1394.684326 1072.061035,1385.631226 
	C1072.119629,1384.970215 1072.176270,1384.306519 1072.180664,1383.643677 
	C1072.247192,1373.691162 1072.341309,1363.738770 1072.337646,1353.786255 
	C1072.336792,1351.470703 1072.164917,1349.126343 1071.778687,1346.844849 
	C1070.637085,1340.099365 1067.453857,1336.690918 1062.688965,1336.864990 
	C1057.947998,1337.038208 1055.056519,1340.447998 1054.106934,1347.386353 
	C1053.657837,1350.667114 1053.613159,1354.003052 1053.352051,1359.230713 
z"/>
<path fill="#EDEDF3" opacity="1.000000" stroke="none" 
	d="
M1677.408569,1400.638062 
	C1670.559814,1387.498047 1672.581055,1377.486938 1683.725342,1369.660889 
	C1689.118286,1365.873657 1695.183838,1363.044556 1702.016846,1359.174438 
	C1701.670410,1354.964111 1701.518921,1350.077393 1700.796265,1345.276733 
	C1700.187378,1341.231201 1698.716675,1337.141968 1693.714478,1337.003296 
	C1689.127930,1336.876099 1686.512207,1339.780151 1685.460693,1344.165039 
	C1685.000122,1346.085449 1684.388062,1347.969482 1683.732788,1350.262207 
	C1681.183594,1350.262207 1678.682617,1350.262207 1676.016846,1350.262207 
	C1675.793335,1348.967773 1675.345825,1347.986206 1675.517944,1347.129028 
	C1678.008911,1334.720459 1686.407593,1328.506836 1697.248291,1330.846558 
	C1703.675293,1332.233643 1708.031616,1335.914673 1709.831909,1342.222168 
	C1710.736206,1345.389648 1711.475586,1348.730103 1711.507446,1351.999878 
	C1711.672119,1368.903564 1711.583862,1385.809814 1711.583862,1403.094849 
	C1706.837402,1405.728271 1703.944092,1403.382446 1701.975708,1398.521973 
	C1694.165771,1404.445312 1686.607300,1409.570068 1677.408569,1400.638062 
M1688.120483,1375.283569 
	C1683.987793,1380.033936 1681.535522,1385.295166 1683.264771,1391.756714 
	C1684.342896,1395.785156 1686.807129,1398.124390 1691.202881,1397.718262 
	C1695.620728,1397.309937 1701.519775,1392.671387 1701.787231,1388.385376 
	C1702.247070,1381.019409 1701.879761,1373.601685 1701.854004,1364.121826 
	C1696.334106,1368.510742 1692.741211,1371.367432 1688.120483,1375.283569 
z"/>
<path fill="#F0F0F5" opacity="1.000000" stroke="none" 
	d="
M1232.031738,1336.017822 
	C1237.721191,1345.692139 1237.763062,1355.456055 1237.161621,1366.304688 
	C1227.540283,1366.304688 1218.664673,1366.304688 1209.458130,1366.304688 
	C1207.600708,1375.346313 1208.225830,1383.489990 1209.956787,1391.606934 
	C1210.884644,1395.957275 1213.521606,1398.888550 1218.057739,1399.162598 
	C1223.225342,1399.474731 1225.914917,1396.009277 1227.257446,1391.586060 
	C1228.110229,1388.777100 1228.265869,1385.756592 1228.811401,1382.347900 
	C1231.053833,1382.211548 1233.284058,1382.075928 1235.326904,1381.951660 
	C1235.864746,1382.820923 1236.525269,1383.391724 1236.461426,1383.864624 
	C1236.020020,1387.136475 1235.821899,1390.516479 1234.807739,1393.620728 
	C1232.095459,1401.922119 1226.697144,1405.749023 1218.541138,1405.705933 
	C1209.559692,1405.658569 1203.772339,1401.988525 1201.765747,1393.111450 
	C1200.099854,1385.741699 1199.758667,1377.994507 1199.551392,1370.394775 
	C1199.343506,1362.764282 1199.234009,1354.977539 1200.480225,1347.492065 
	C1203.313843,1330.472290 1217.043213,1325.366821 1232.031738,1336.017822 
M1224.509399,1361.861572 
	C1225.601196,1361.281738 1227.638306,1360.701782 1227.638184,1360.122070 
	C1227.637451,1354.524536 1227.680420,1348.873657 1226.917236,1343.347656 
	C1226.379150,1339.451050 1223.521240,1336.688354 1219.306885,1336.786377 
	C1215.121460,1336.883789 1211.311646,1338.496216 1210.123413,1343.010376 
	C1208.539551,1349.026978 1207.481567,1355.155640 1209.362915,1361.900146 
	C1214.131836,1361.900146 1218.410767,1361.900146 1224.509399,1361.861572 
z"/>
<path fill="#E8E8EF" opacity="1.000000" stroke="none" 
	d="
M1150.027344,1403.745361 
	C1148.737671,1401.627441 1147.967529,1399.730591 1147.959717,1397.830688 
	C1147.876709,1377.532959 1147.905518,1357.234863 1147.939453,1336.936768 
	C1147.941650,1335.639404 1148.239990,1334.342529 1148.569214,1331.683716 
	C1152.351318,1332.597046 1155.719482,1333.410522 1159.087646,1334.223877 
	C1158.981567,1334.663452 1158.875488,1335.103027 1158.769409,1335.542480 
	C1159.082153,1335.428955 1159.448120,1335.384888 1159.700073,1335.191772 
	C1175.012573,1323.452148 1186.972900,1335.219971 1186.061646,1350.510742 
	C1185.251709,1364.105347 1185.895142,1377.786621 1185.896851,1391.429565 
	C1185.897339,1395.351807 1185.896973,1399.273926 1185.896973,1403.584229 
	C1182.300415,1403.584229 1179.795288,1403.584229 1176.189453,1403.584229 
	C1176.189453,1394.595215 1176.190796,1386.025513 1176.189087,1377.455688 
	C1176.187134,1367.805786 1176.296143,1358.153931 1176.143188,1348.506470 
	C1176.019287,1340.691528 1173.920410,1337.841797 1168.809937,1337.774170 
	C1162.780518,1337.694336 1157.548340,1342.576904 1157.402710,1348.994385 
	C1157.183716,1358.639526 1157.339233,1368.292969 1157.330688,1377.942871 
	C1157.324463,1384.930664 1157.191528,1391.921021 1157.341309,1398.905396 
	C1157.444092,1403.696045 1154.697144,1404.382690 1150.027344,1403.745361 
z"/>
<path fill="#F0F0F5" opacity="1.000000" stroke="none" 
	d="
M1286.580078,1387.450806 
	C1283.407959,1402.378052 1275.722900,1408.098999 1263.718262,1405.088135 
	C1257.823120,1403.609741 1253.587646,1400.222046 1251.808960,1394.249146 
	C1251.053833,1391.713257 1250.070801,1389.105347 1250.035522,1386.518799 
	C1249.867432,1374.233154 1249.443970,1361.911011 1250.168091,1349.664551 
	C1250.849609,1338.138062 1256.356567,1332.236938 1265.793091,1330.638428 
	C1274.443359,1329.173340 1281.808716,1333.177734 1284.693359,1341.502319 
	C1286.079590,1345.502808 1286.483032,1349.843872 1287.492676,1354.826050 
	C1284.382446,1355.276123 1281.973755,1355.624512 1278.949463,1356.062134 
	C1278.113403,1351.710938 1277.438354,1347.895752 1276.637207,1344.107300 
	C1275.711670,1339.732056 1273.237793,1336.792603 1268.499756,1336.905151 
	C1263.872192,1337.015015 1261.313599,1339.995605 1260.235352,1344.229614 
	C1259.581421,1346.796875 1258.914185,1349.465820 1258.938599,1352.082764 
	C1259.049683,1364.018555 1259.320557,1375.954834 1259.743652,1387.883667 
	C1259.823242,1390.129761 1260.193604,1393.003906 1261.603882,1394.415039 
	C1263.734009,1396.546509 1266.892700,1398.803833 1269.620972,1398.812134 
	C1271.738159,1398.818726 1274.795532,1395.861084 1275.778564,1393.524048 
	C1277.412842,1389.639160 1277.718262,1385.195557 1278.709595,1380.373047 
	C1281.243774,1380.373047 1284.016235,1380.373047 1287.190063,1380.373047 
	C1286.996704,1382.824951 1286.843384,1384.770142 1286.580078,1387.450806 
z"/>
<path fill="#EDECF2" opacity="1.000000" stroke="none" 
	d="
M1017.338989,1337.746582 
	C1007.772461,1337.732056 1005.094177,1339.787842 1004.479126,1349.244263 
	C1003.788330,1359.863403 1004.062927,1370.553833 1004.158447,1381.211060 
	C1004.187927,1384.501465 1004.891663,1387.805664 1005.490051,1391.066162 
	C1006.366455,1395.841431 1009.059326,1399.223999 1014.148743,1399.095703 
	C1019.431091,1398.962646 1021.317993,1394.997437 1022.038452,1390.343140 
	C1022.543396,1387.080566 1023.057922,1383.819336 1023.624146,1380.199707 
	C1026.561768,1380.199707 1029.062500,1380.199707 1032.486694,1380.199707 
	C1031.932617,1384.465332 1031.828735,1388.427368 1030.852295,1392.161255 
	C1028.391846,1401.570679 1022.808533,1405.796265 1013.705200,1405.727661 
	C1004.436768,1405.657837 997.947571,1400.695068 996.113647,1391.222290 
	C993.172668,1376.031006 993.326904,1360.682617 996.051575,1345.493286 
	C997.780396,1335.855713 1004.160400,1330.757568 1013.271790,1330.355469 
	C1022.317505,1329.956055 1028.359985,1334.727905 1030.943237,1344.655640 
	C1031.763916,1347.809448 1031.950317,1351.128418 1032.552124,1355.223511 
	C1029.439453,1355.459351 1027.015137,1355.643066 1025.161499,1355.783447 
	C1022.645935,1349.456299 1020.390198,1343.782959 1017.338989,1337.746582 
z"/>
<path fill="#EAE9F0" opacity="1.000000" stroke="none" 
	d="
M1636.261108,1388.608887 
	C1636.442383,1389.821045 1636.497925,1390.150024 1636.581909,1390.471313 
	C1637.855835,1395.338257 1640.185547,1399.214233 1645.912720,1399.108643 
	C1650.123413,1399.031006 1652.640747,1395.667847 1653.750610,1389.016602 
	C1654.186157,1386.406372 1654.338257,1383.748901 1654.707153,1380.290039 
	C1657.549438,1380.154541 1660.330566,1380.021851 1663.207275,1379.884644 
	C1663.505249,1381.476440 1663.923096,1382.435059 1663.807373,1383.324341 
	C1663.422974,1386.278809 1663.066406,1389.266602 1662.303955,1392.136597 
	C1659.811157,1401.519653 1654.377075,1405.770264 1645.241821,1405.749023 
	C1636.257568,1405.728149 1629.823608,1401.280273 1627.904419,1392.366821 
	C1624.512451,1376.612671 1624.663574,1360.624756 1627.751465,1344.872681 
	C1629.674438,1335.062866 1636.094482,1330.444214 1645.282715,1330.328857 
	C1654.290771,1330.215698 1660.021240,1335.077637 1662.445679,1345.155273 
	C1663.192871,1348.261475 1663.464600,1351.482178 1664.059448,1355.333740 
	C1660.547974,1355.333740 1658.070190,1355.333740 1655.095215,1355.333740 
	C1654.429199,1351.267700 1653.989014,1347.358521 1653.109741,1343.550659 
	C1652.203735,1339.627563 1649.681396,1337.012329 1645.449341,1336.951538 
	C1641.316406,1336.891968 1638.475586,1339.151367 1637.348633,1343.065918 
	C1636.530640,1345.907227 1635.846680,1348.907104 1635.834839,1351.839233 
	C1635.786377,1363.799561 1636.019409,1375.760986 1636.261108,1388.608887 
z"/>
<path fill="#EAE9F0" opacity="1.000000" stroke="none" 
	d="
M1550.110840,1316.975952 
	C1549.909546,1321.156372 1549.836548,1324.485229 1549.853149,1327.813843 
	C1549.857910,1328.782959 1550.119019,1329.750732 1550.361206,1331.382202 
	C1553.696167,1331.821411 1557.116943,1332.271729 1560.831787,1332.760864 
	C1560.297607,1340.733398 1553.540405,1335.355103 1550.030762,1340.529785 
	C1550.030762,1359.593750 1550.030762,1381.085938 1550.030762,1403.263428 
	C1546.703735,1403.564209 1544.233276,1403.787598 1540.722046,1404.104980 
	C1540.722046,1382.064941 1540.722046,1360.587646 1540.722046,1340.845825 
	C1537.702881,1335.557495 1531.335938,1340.094360 1530.248413,1333.305664 
	C1533.286621,1332.630371 1536.260864,1331.969360 1539.773315,1331.188599 
	C1540.036865,1326.421631 1539.903442,1321.429565 1540.669189,1316.579468 
	C1542.103271,1307.498047 1548.388428,1303.419800 1557.251587,1305.268433 
	C1559.630981,1305.764771 1559.630981,1305.764648 1560.128296,1310.257324 
	C1556.654175,1312.325562 1553.463745,1314.224976 1550.110840,1316.975952 
z"/>
<path fill="#EAE9F0" opacity="1.000000" stroke="none" 
	d="
M1311.346924,1404.504883 
	C1302.953369,1401.888062 1302.420410,1395.324585 1302.284302,1388.989136 
	C1302.005981,1376.031982 1302.181885,1363.064941 1302.172119,1350.102051 
	C1302.169312,1346.463867 1302.171631,1342.825684 1302.171631,1339.956787 
	C1299.853516,1335.592773 1293.286621,1340.074463 1292.577515,1333.254272 
	C1295.554321,1332.537842 1298.530273,1331.821655 1302.070068,1330.969604 
	C1302.070068,1323.423218 1302.070068,1315.842407 1302.070068,1307.286133 
	C1305.317749,1307.086548 1308.003784,1306.921509 1311.695557,1306.694702 
	C1311.695557,1315.480835 1311.695557,1323.330078 1311.695557,1331.536133 
	C1315.766602,1331.867554 1318.950806,1332.126831 1322.185913,1332.390259 
	C1321.069458,1337.124878 1321.069458,1337.124878 1311.896606,1338.602661 
	C1311.896606,1356.061523 1311.954346,1373.635010 1311.869141,1391.207886 
	C1311.833252,1398.621948 1317.821655,1397.708984 1322.322510,1398.445923 
	C1321.351074,1404.783203 1321.351074,1404.783203 1311.346924,1404.504883 
z"/>
<path fill="#F9F9FB" opacity="1.000000" stroke="none" 
	d="
M1578.319092,1400.291016 
	C1576.622803,1406.415527 1573.000244,1402.715576 1569.928223,1403.911865 
	C1569.928223,1379.729370 1569.928223,1356.555176 1569.928223,1333.422485 
	C1574.740234,1330.547363 1577.838745,1332.012939 1579.313721,1336.915039 
	C1583.682983,1334.799072 1587.686646,1332.860229 1592.807983,1330.380249 
	C1593.190430,1334.088501 1593.434814,1336.456543 1593.713257,1339.156250 
	C1591.908447,1339.544556 1590.657593,1339.804688 1589.411133,1340.083496 
	C1580.524292,1342.071289 1578.498535,1344.359863 1578.410522,1353.651733 
	C1578.265991,1368.912842 1578.358398,1384.176392 1578.319092,1400.291016 
z"/>
<path fill="#E8E8EF" opacity="1.000000" stroke="none" 
	d="
M1602.420288,1344.388916 
	C1602.420288,1340.161255 1602.420288,1336.881348 1602.420288,1332.930786 
	C1605.457153,1332.550903 1607.900391,1332.245239 1610.262329,1331.949829 
	C1612.362793,1339.423706 1612.979248,1385.352295 1611.280029,1403.248535 
	C1608.703247,1403.248535 1606.043213,1403.248535 1602.420288,1403.248535 
	C1602.420288,1383.683594 1602.420288,1364.510132 1602.420288,1344.388916 
z"/>
<path fill="#F9F9FB" opacity="1.000000" stroke="none" 
	d="
M1342.830322,1369.996338 
	C1342.830322,1381.565308 1342.830322,1392.136108 1342.830322,1403.324219 
	C1339.716309,1403.473755 1337.291626,1403.590210 1334.357666,1403.731079 
	C1334.357666,1379.731323 1334.357666,1356.340576 1334.357666,1332.537109 
	C1337.025635,1332.537109 1339.224121,1332.537109 1342.830444,1332.537109 
	C1342.830444,1344.762817 1342.830444,1356.880493 1342.830322,1369.996338 
z"/>
<path fill="#E8E8EF" opacity="1.000000" stroke="none" 
	d="
M1606.437866,1305.083740 
	C1615.453125,1305.628052 1610.823975,1311.420044 1611.913452,1315.583984 
	C1608.770630,1315.583984 1606.267944,1315.583984 1603.983765,1315.583984 
	C1601.377808,1313.758789 1602.334595,1308.639404 1606.437866,1305.083740 
z"/>
<path fill="#F0F0F5" opacity="1.000000" stroke="none" 
	d="
M1334.843262,1305.992554 
	C1337.390991,1305.483032 1339.354004,1305.483032 1342.358887,1305.483032 
	C1342.528076,1308.575317 1342.696533,1311.656372 1342.900269,1315.381958 
	C1339.688354,1315.381958 1337.256470,1315.381958 1334.258423,1315.381958 
	C1334.258423,1312.273071 1334.258423,1309.387573 1334.843262,1305.992554 
z"/>
<path fill="#332F72" opacity="1.000000" stroke="none" 
	d="
M1543.857666,589.823059 
	C1555.762939,599.512085 1559.290283,611.346130 1554.757446,625.022034 
	C1549.328247,641.402832 1531.237427,649.527039 1515.110718,643.481873 
	C1499.541504,637.645813 1491.418335,619.830627 1497.200806,604.202698 
	C1503.071777,588.334656 1520.263062,580.192993 1536.134033,585.876465 
	C1538.606079,586.761658 1540.874634,588.215515 1543.857666,589.823059 
z"/>
<path fill="#332F72" opacity="1.000000" stroke="none" 
	d="
M1186.279785,644.631592 
	C1168.431396,646.942505 1154.062622,638.061584 1150.105103,622.943726 
	C1146.199585,608.025208 1153.511597,592.674927 1167.415527,586.603638 
	C1182.425659,580.049316 1199.948242,586.467896 1207.229004,601.187134 
	C1214.284424,615.451172 1209.113525,633.013489 1195.305664,641.098694 
	C1192.770996,642.582825 1189.812012,643.342224 1186.279785,644.631592 
z"/>
<path fill="#322C6D" opacity="1.000000" stroke="none" 
	d="
M815.582397,1157.610352 
	C803.935913,1155.907715 799.516846,1151.842163 797.846619,1141.515015 
	C795.408203,1126.437500 799.035217,1113.180908 810.458252,1102.606812 
	C816.706238,1096.823120 823.375000,1091.571533 832.829224,1087.820068 
	C832.829224,1095.132324 832.829163,1101.328979 832.829163,1107.525757 
	C832.829102,1116.477417 832.834534,1125.429077 832.827820,1134.380737 
	C832.816956,1148.915771 830.170593,1152.630371 815.582397,1157.610352 
z"/>
<path fill="#353173" opacity="1.000000" stroke="none" 
	d="
M1695.407227,1106.011963 
	C1695.407104,1118.639160 1695.154785,1130.277466 1695.510254,1141.897095 
	C1695.695068,1147.939575 1693.892822,1152.858398 1690.197876,1157.447632 
	C1683.797119,1165.397339 1676.185181,1171.567383 1666.276978,1174.551758 
	C1652.735229,1178.630493 1641.522339,1172.838623 1637.745972,1159.086060 
	C1632.572876,1140.247437 1637.714111,1123.632690 1650.220825,1109.128662 
	C1659.120117,1098.807861 1680.753540,1082.061890 1695.207153,1074.103149 
	C1695.276855,1084.868286 1695.342041,1094.941772 1695.407227,1106.011963 
z"/>
<path fill="#322E71" opacity="1.000000" stroke="none" 
	d="
M1945.913330,1061.530640 
	C1945.914673,1066.545044 1942.952148,1066.222656 1940.306641,1066.225830 
	C1922.692017,1066.247192 1905.077515,1066.236816 1886.002930,1066.236816 
	C1885.927368,1053.768188 1885.513062,1041.624756 1886.676880,1029.501343 
	C1887.309692,1022.909485 1888.210327,1016.246033 1889.949463,1009.876831 
	C1894.325195,993.851685 1914.378662,985.001099 1929.399658,992.028320 
	C1934.864014,994.584717 1938.800781,998.822083 1940.199585,1004.430115 
	C1942.514648,1013.711975 1944.541138,1023.161377 1945.494995,1032.660034 
	C1946.421265,1041.885376 1945.845459,1051.261719 1945.913330,1061.530640 
z"/>
<path fill="#393576" opacity="1.000000" stroke="none" 
	d="
M1438.343384,1367.629150 
	C1435.975464,1373.663086 1432.197632,1376.636963 1426.445190,1375.467529 
	C1420.804077,1374.320923 1418.023193,1369.932007 1417.742432,1364.590210 
	C1417.432495,1358.692261 1417.485596,1352.632935 1418.528442,1346.850830 
	C1419.376343,1342.149170 1422.473389,1338.251709 1428.082031,1338.155029 
	C1433.574463,1338.060181 1436.502075,1341.435059 1438.156128,1346.259277 
	C1440.495361,1353.081543 1440.708862,1359.947510 1438.343384,1367.629150 
z"/>
<path fill="#393576" opacity="1.000000" stroke="none" 
	d="
M1441.947388,1407.940796 
	C1443.620972,1416.127319 1442.696533,1418.847656 1436.841675,1419.668091 
	C1430.668579,1420.533203 1424.244263,1420.541382 1418.032715,1419.909912 
	C1412.755371,1419.373413 1411.595581,1416.336548 1413.556641,1411.343506 
	C1416.910889,1402.803345 1420.758423,1400.568359 1429.603516,1402.788574 
	C1433.697510,1403.816284 1437.562134,1405.757446 1441.947388,1407.940796 
z"/>
<path fill="#3C3878" opacity="1.000000" stroke="none" 
	d="
M1494.880493,1385.031616 
	C1497.691040,1374.971680 1505.038940,1370.438232 1514.002197,1364.803589 
	C1514.002197,1373.318115 1514.243896,1380.116333 1513.921509,1386.887695 
	C1513.686768,1391.818726 1508.738403,1397.182983 1503.797363,1397.410767 
	C1501.309937,1397.525391 1497.835449,1396.108643 1496.417480,1394.192871 
	C1494.869873,1392.102051 1495.184937,1388.632812 1494.880493,1385.031616 
z"/>
<path fill="#332F72" opacity="1.000000" stroke="none" 
	d="
M1053.368652,1358.272461 
	C1053.613159,1354.003052 1053.657837,1350.667114 1054.106934,1347.386353 
	C1055.056519,1340.447998 1057.947998,1337.038208 1062.688965,1336.864990 
	C1067.453857,1336.690918 1070.637085,1340.099365 1071.778687,1346.844849 
	C1072.164917,1349.126343 1072.336792,1351.470703 1072.337646,1353.786255 
	C1072.341309,1363.738770 1072.247192,1373.691162 1072.180664,1383.643677 
	C1072.176270,1384.306519 1072.119629,1384.970215 1072.061035,1385.631226 
	C1071.258301,1394.684326 1068.406372,1399.059692 1063.202026,1399.232666 
	C1057.890137,1399.409302 1054.522827,1395.037964 1053.992310,1386.092407 
	C1053.462280,1377.157349 1053.540405,1368.186035 1053.368652,1358.272461 
z"/>
<path fill="#3C3878" opacity="1.000000" stroke="none" 
	d="
M1688.634277,1374.753906 
	C1692.741211,1371.367432 1696.334106,1368.510742 1701.854004,1364.121826 
	C1701.879761,1373.601685 1702.247070,1381.019409 1701.787231,1388.385376 
	C1701.519775,1392.671387 1695.620728,1397.309937 1691.202881,1397.718262 
	C1686.807129,1398.124390 1684.342896,1395.785156 1683.264771,1391.756714 
	C1681.535522,1385.295166 1683.987793,1380.033936 1688.634277,1374.753906 
z"/>
<path fill="#3C3878" opacity="1.000000" stroke="none" 
	d="
M1223.599609,1361.880859 
	C1218.410767,1361.900146 1214.131836,1361.900146 1209.362915,1361.900146 
	C1207.481567,1355.155640 1208.539551,1349.026978 1210.123413,1343.010376 
	C1211.311646,1338.496216 1215.121460,1336.883789 1219.306885,1336.786377 
	C1223.521240,1336.688354 1226.379150,1339.451050 1226.917236,1343.347656 
	C1227.680420,1348.873657 1227.637451,1354.524536 1227.638184,1360.122070 
	C1227.638306,1360.701782 1225.601196,1361.281738 1223.599609,1361.880859 
z"/>
</svg>